<?xml version="1.0" standalone="no"?>
<!DOCTYPE svg PUBLIC "-//W3C//DTD SVG 1.1//EN" "http://www.w3.org/Graphics/SVG/1.1/DTD/svg11.dtd">
<svg height="1024" node-id="1" sillyvg="true" template-height="1024" template-width="1024"
    version="1.1" viewBox="0 0 1024 1024" width="1024" xmlns="http://www.w3.org/2000/svg"
    xmlns:xlink="http://www.w3.org/1999/xlink">
    <defs node-id="101">
        <linearGradient gradientUnits="objectBoundingBox" id="linear-gradient" node-id="5"
            spreadMethod="pad" x1="0" x2="1" y1="0.418" y2="0.457">
            <stop offset="0" stop-color="#c3d2ef"></stop>
            <stop offset="1" stop-color="#ffffff"></stop>
        </linearGradient>
        <clipPath id="clip-工作讲解-2" node-id="8">
            <path d="M 0.00 0.00 L 1024.00 0.00 L 1024.00 1024.00 L 0.00 1024.00 Z" fill="#000000"
                fill-rule="nonzero" node-id="110" stroke="none" target-height="1024"
                target-width="1024" target-x="0" target-y="0"></path>
        </clipPath>
        <clipPath id="clip-path" node-id="3">
            <path d="M 0.00 0.00 L 1024.00 0.00 L 1024.00 1024.00 L 0.00 1024.00 Z" fill="#000000"
                fill-rule="nonzero" id="工作讲解" node-id="4" stroke="none" target-height="1024"
                target-width="1024" target-x="0" target-y="0"></path>
        </clipPath>
    </defs>
    <g clip-path="url(#clip-工作讲解-2)" id="工作讲解-2" node-id="10">
        <path d="M 0.00 0.00 L 1024.00 0.00 L 1024.00 1024.00 L 0.00 1024.00 Z" fill="transparent"
            fill-rule="nonzero" node-id="118" stroke="none" target-height="1024" target-width="1024"
            target-x="0" target-y="0"></path>
        <g clip-path="url(#clip-path)" group-id="1" id="工作讲解-3" node-id="12">
            <path d="M 0.00 0.00 L 1024.00 0.00 L 1024.00 1024.00 L 0.00 1024.00 Z" fill="#ffffff"
                fill-opacity="0" fill-rule="nonzero" group-id="1,2" id="工作讲解-4" node-id="13"
                stroke="none" target-height="1024" target-width="1024" target-x="0" target-y="0"></path>
            <path
                d="M 93.84 635.27 L 98.74 630.36 L 101.42 628.17 L 107.33 624.34 L 111.58 622.09 L 116.11 620.07 L 120.91 618.29 L 125.81 616.67 L 131.17 615.19 L 136.71 613.92 L 142.35 612.77 L 148.26 611.76 L 160.46 610.22 L 173.21 609.14 L 181.90 608.70 L 190.58 608.40 L 199.45 608.30 L 217.10 608.43 L 238.72 609.24 L 262.84 610.62 L 292.50 612.60 L 300.54 613.01 L 306.45 613.14 L 347.66 613.31 L 384.34 613.61 L 453.46 614.55 L 506.31 615.60 L 534.12 616.30 L 590.48 618.02 L 618.76 619.06 L 646.57 620.24 L 682.97 622.05 L 717.81 624.17 L 734.35 625.35 L 749.96 626.56 L 765.58 627.90 L 779.90 629.32 L 793.11 630.76 L 803.09 632.01 L 812.15 633.25 L 827.85 635.81 L 835.43 637.25 L 841.90 638.73 L 847.44 640.21 L 852.25 641.69 L 855.76 643.04 L 858.71 644.38 L 861.02 645.76 L 862.78 647.14 L 868.51 654.10 L 871.19 656.79 L 878.39 662.81 L 883.11 666.14 L 888.00 669.33 L 895.77 674.01 L 926.53 691.23 L 932.91 695.23 L 936.79 697.92 L 939.93 700.57 L 942.61 703.13 L 944.18 705.11 L 945.38 707.06 L 946.12 709.01 L 946.40 710.97 L 946.22 712.92 L 945.48 714.87 L 944.27 716.85 L 942.43 718.90 L 940.12 720.82 L 937.07 722.84 L 933.28 724.92 L 916.83 732.45 L 906.67 737.30 L 873.22 754.31 L 865.64 757.94 L 858.16 761.31 L 847.44 765.51 L 841.81 767.46 L 835.80 769.31 L 829.24 771.09 L 822.22 772.81 L 814.82 774.39 L 806.69 775.97 L 791.26 778.62 L 785.63 779.83 L 780.55 781.18 L 775.74 782.66 L 766.87 785.85 L 760.77 788.41 L 748.58 793.82 L 737.49 798.40 L 727.05 801.93 L 721.32 803.58 L 714.85 805.19 L 707.64 806.74 L 702.10 807.78 L 689.26 809.70 L 674.66 811.34 L 657.75 812.65 L 638.44 813.56 L 616.54 814.00 L 591.59 814.00 L 563.59 813.43 L 528.57 812.12 L 496.70 810.57 L 468.52 808.86 L 457.06 807.98 L 435.53 806.10 L 426.94 805.19 L 410.86 803.21 L 404.48 802.26 L 395.43 800.75 L 388.13 799.34 L 381.38 797.86 L 375.84 796.48 L 356.81 791.34 L 352.00 790.26 L 346.46 789.25 L 338.23 788.11 L 333.15 787.60 L 322.06 786.83 L 315.14 786.49 L 307.47 786.29 L 299.43 786.26 L 291.02 786.39 L 274.02 787.03 L 252.12 788.44 L 200.01 792.61 L 188.00 793.45 L 172.47 794.33 L 165.36 794.56 L 158.34 794.66 L 151.87 794.63 L 145.95 794.40 L 141.52 794.09 L 137.55 793.66 L 133.94 793.08 L 130.62 792.41 L 127.47 791.60 L 124.79 790.63 L 122.39 789.49 L 120.27 788.17 L 118.60 786.76 L 117.40 785.15 L 116.39 783.26 L 115.92 781.08 L 115.28 770.32 L 115.92 762.15 L 117.59 755.76 L 122.39 742.27 L 123.32 735.78 L 123.41 731.71 L 123.04 729.29 L 122.12 726.60 L 120.54 723.68 L 117.59 719.27 L 113.61 714.36 L 99.94 698.12 L 95.32 692.07 L 89.96 683.69 L 87.65 679.29 L 85.89 674.85 L 84.51 670.24 L 83.68 665.50 L 83.40 661.94 L 83.49 658.34 L 84.05 654.61 L 85.06 650.81 L 86.45 647.07 L 88.39 643.24 L 90.79 639.30 L 93.84 635.27 Z"
                fill="#f2f6fe" fill-rule="nonzero" group-id="1,3" id="路径_1166" node-id="14"
                stroke="none" target-height="205.70007" target-width="862.99976" target-x="83.40018"
                target-y="608.3"></path>
            <path
                d="M 234.10 161.50 L 234.10 147.20 L 219.80 147.20 L 218.60 146.90 L 217.60 146.30 L 217.00 145.30 L 216.70 144.10 L 217.00 142.90 L 217.60 141.90 L 218.60 141.30 L 219.80 141.00 L 234.10 141.00 L 234.10 126.70 L 234.40 125.50 L 235.00 124.50 L 236.00 123.90 L 237.20 123.60 L 238.40 123.90 L 239.40 124.50 L 240.10 125.50 L 240.30 126.70 L 240.30 141.00 L 254.60 141.00 L 255.90 141.30 L 256.80 141.90 L 257.50 142.90 L 257.70 144.10 L 257.50 145.30 L 256.80 146.30 L 255.90 146.90 L 254.60 147.20 L 240.30 147.20 L 240.30 161.50 L 240.10 162.70 L 239.40 163.70 L 238.40 164.40 L 237.20 164.60 L 236.00 164.40 L 235.00 163.70 L 234.40 162.70 L 234.10 161.50 Z"
                fill="#d1e6ff" fill-rule="nonzero" group-id="1,4" id="联合_163" node-id="15"
                stroke="none" target-height="41.000008" target-width="41.000015" target-x="216.7"
                target-y="123.6"></path>
            <path
                d="M 293.80 254.40 L 291.70 254.20 L 289.80 253.50 L 288.00 252.40 L 286.60 251.00 L 285.50 249.30 L 284.80 247.30 L 284.50 245.10 L 284.70 243.10 L 285.40 241.20 L 286.40 239.50 L 287.80 238.00 L 289.60 236.80 L 289.70 233.80 L 290.20 231.80 L 290.90 229.90 L 293.10 226.70 L 296.20 224.20 L 298.10 223.30 L 302.20 222.40 L 306.10 222.80 L 309.80 224.40 L 312.80 226.90 L 315.00 230.40 L 318.20 229.70 L 321.50 230.50 L 324.00 232.70 L 325.30 235.90 L 326.90 236.00 L 329.90 237.10 L 331.80 238.60 L 333.30 240.50 L 334.40 243.50 L 334.50 245.20 L 334.40 246.90 L 333.20 249.90 L 331.80 251.70 L 329.90 253.20 L 326.90 254.30 L 325.20 254.40 Z"
                fill="#e2efff" fill-rule="nonzero" group-id="1,5" id="联合_164" node-id="16"
                stroke="none" target-height="32" target-width="50" target-x="284.5" target-y="222.4"></path>
            <path
                d="M 119.80 205.90 L 118.00 205.70 L 116.40 205.00 L 115.00 204.00 L 113.90 202.60 L 113.30 201.00 L 113.00 199.20 L 113.30 197.30 L 113.90 195.70 L 115.00 194.40 L 116.40 193.30 L 117.90 192.60 L 119.80 192.40 L 120.70 190.10 L 122.50 188.50 L 124.90 187.90 L 127.30 188.40 L 128.40 186.40 L 129.90 184.90 L 131.70 183.70 L 133.80 182.90 L 135.90 182.60 L 138.20 182.80 L 140.30 183.50 L 142.20 184.70 L 143.70 186.20 L 144.90 188.10 L 145.60 190.10 L 145.80 193.10 L 148.10 195.00 L 149.40 197.70 L 149.40 200.70 L 148.10 203.40 L 145.70 205.30 L 142.80 205.90 Z"
                fill="#e2efff" fill-rule="nonzero" group-id="1,6" id="联合_165" node-id="17"
                stroke="none" target-height="23.299988" target-width="36.399994" target-x="113"
                target-y="182.6"></path>
            <path
                d="M 802.00 383.50 L 802.70 379.80 L 804.50 376.70 L 807.20 374.40 L 808.80 373.70 L 812.50 373.00 L 816.20 373.70 L 819.30 375.50 L 821.60 378.20 L 822.30 379.80 L 823.00 383.50 L 822.30 387.20 L 821.60 388.80 L 819.30 391.50 L 816.20 393.30 L 812.50 394.00 L 808.80 393.30 L 805.70 391.50 L 803.40 388.80 L 802.70 387.20 L 802.00 383.50 Z"
                fill="#ffffff" fill-rule="nonzero" group-id="1,7" id="椭圆_379" node-id="18"
                stroke="none" target-height="21" target-width="21" target-x="802" target-y="373"></path>
            <path
                d="M 865.10 202.00 L 868.60 202.70 L 871.50 204.40 L 873.70 207.00 L 874.50 208.50 L 875.10 212.00 L 875.10 373.50 L 874.50 377.00 L 872.70 380.00 L 870.10 382.10 L 868.60 382.90 L 865.10 383.50 L 681.00 383.50 L 677.50 382.90 L 674.50 381.10 L 672.30 378.50 L 671.60 377.00 L 671.00 373.50 L 671.00 212.00 L 671.60 208.50 L 673.30 205.60 L 675.90 203.40 L 677.50 202.70 L 681.00 202.00 Z"
                fill="#bcd5fb" fill-rule="nonzero" group-id="1,8,12" id="矩形_1433" node-id="20"
                stroke="none" target-height="181.5" target-width="204.09998" target-x="671"
                target-y="202"></path>
            <path
                d="M 852.80 214.50 L 856.30 215.20 L 857.90 215.90 L 860.50 218.10 L 862.20 221.00 L 862.80 224.50 L 862.80 361.50 L 862.20 365.00 L 860.50 368.00 L 857.90 370.20 L 856.30 370.90 L 852.80 371.50 L 693.20 371.50 L 689.70 370.90 L 686.70 369.20 L 684.60 366.60 L 683.80 365.00 L 683.20 361.50 L 683.20 224.50 L 683.80 221.00 L 685.60 218.10 L 688.20 215.90 L 689.70 215.20 L 693.20 214.50 Z"
                fill="#ffffff" fill-rule="nonzero" group-id="1,8,13" id="矩形_1487" node-id="21"
                stroke="none" target-height="157" target-width="179.59998" target-x="683.2"
                target-y="214.5"></path>
            <path
                d="M 769.30 223.40 L 770.70 223.60 L 772.80 224.90 L 774.10 227.00 L 774.30 228.40 L 774.10 229.70 L 772.80 231.90 L 770.70 233.20 L 769.30 233.30 L 692.90 233.30 L 691.50 233.20 L 689.40 231.90 L 688.10 229.70 L 687.90 228.40 L 688.10 227.00 L 689.40 224.90 L 691.50 223.60 L 692.90 223.40 Z"
                fill="#cfe2fa" fill-rule="nonzero" group-id="1,8,14" id="矩形_1434" node-id="22"
                stroke="none" target-height="9.900009" target-width="86.39996" target-x="687.9"
                target-y="223.4"></path>
            <path
                d="M 854.50 223.40 L 855.80 223.60 L 858.00 224.90 L 859.20 227.00 L 859.40 228.40 L 859.20 229.70 L 858.00 231.90 L 855.80 233.20 L 854.50 233.30 L 796.00 233.20 L 794.80 232.70 L 793.00 230.90 L 792.40 228.40 L 792.60 227.00 L 793.80 224.90 L 796.00 223.60 L 797.30 223.40 Z"
                fill="#5095fe" fill-rule="nonzero" group-id="1,8,15" id="矩形_1435" node-id="23"
                stroke="none" target-height="9.900009" target-width="67" target-x="792.4"
                target-y="223.4"></path>
            <path
                d="M 789.60 245.10 L 790.70 245.30 L 791.60 245.90 L 792.10 246.80 L 792.40 247.80 L 792.10 248.90 L 791.60 249.70 L 790.70 250.30 L 789.60 250.50 L 690.60 250.50 L 689.50 250.30 L 688.70 249.70 L 688.10 248.90 L 687.90 247.80 L 688.10 246.80 L 688.70 245.90 L 689.50 245.30 L 690.60 245.10 Z"
                fill="#5095fe" fill-rule="nonzero" group-id="1,8,16" id="矩形_1436" node-id="24"
                stroke="none" target-height="5.399994" target-width="104.5" target-x="687.9"
                target-y="245.1"></path>
            <path
                d="M 740.60 256.00 L 741.70 256.20 L 742.60 256.70 L 743.10 257.60 L 743.40 258.70 L 743.10 259.70 L 742.60 260.60 L 741.70 261.20 L 740.60 261.40 L 690.60 261.40 L 689.50 261.20 L 688.70 260.60 L 688.10 259.70 L 687.90 258.70 L 688.10 257.60 L 688.70 256.70 L 689.50 256.20 L 690.60 256.00 Z"
                fill="#5095fe" fill-rule="nonzero" group-id="1,8,17" id="矩形_1437" node-id="25"
                stroke="none" target-height="5.399994" target-width="55.5" target-x="687.9"
                target-y="256"></path>
            <path
                d="M 857.60 273.10 L 858.50 273.40 L 859.20 274.00 L 859.50 274.90 L 859.20 275.90 L 858.50 276.50 L 857.60 276.80 L 689.70 276.80 L 688.80 276.50 L 688.10 275.90 L 687.90 274.90 L 688.10 274.00 L 688.80 273.40 L 689.70 273.10 Z"
                fill="#cfe2fa" fill-rule="nonzero" group-id="1,8,18" id="矩形_1438" node-id="26"
                stroke="none" target-height="3.6999817" target-width="171.59998" target-x="687.9"
                target-y="273.1"></path>
            <path
                d="M 857.60 289.40 L 858.50 289.60 L 859.20 290.30 L 859.50 291.20 L 859.20 292.10 L 858.50 292.80 L 857.60 293.00 L 689.70 293.00 L 688.80 292.80 L 688.10 292.10 L 687.90 291.20 L 688.10 290.30 L 688.80 289.60 L 689.70 289.40 Z"
                fill="#cfe2fa" fill-rule="nonzero" group-id="1,8,19" id="矩形_1439" node-id="27"
                stroke="none" target-height="3.600006" target-width="171.59998" target-x="687.9"
                target-y="289.4"></path>
            <path
                d="M 857.60 305.70 L 858.50 305.90 L 859.20 306.60 L 859.50 307.50 L 859.20 308.40 L 858.50 309.10 L 857.60 309.30 L 689.70 309.30 L 688.80 309.10 L 688.10 308.40 L 687.90 307.50 L 688.10 306.60 L 688.80 305.90 L 689.70 305.70 Z"
                fill="#cfe2fa" fill-rule="nonzero" group-id="1,8,20" id="矩形_1440" node-id="28"
                stroke="none" target-height="3.5999756" target-width="171.59998" target-x="687.9"
                target-y="305.7"></path>
            <path
                d="M 857.20 321.10 L 858.30 321.30 L 859.20 322.20 L 859.50 323.30 L 859.20 324.50 L 858.30 325.30 L 857.20 325.60 L 690.20 325.60 L 689.00 325.30 L 688.20 324.50 L 687.90 323.30 L 688.20 322.20 L 689.00 321.30 L 690.20 321.10 Z"
                fill="#cfe2fa" fill-rule="nonzero" group-id="1,8,21" id="矩形_1441" node-id="29"
                stroke="none" target-height="4.5" target-width="171.59998" target-x="687.9"
                target-y="321.1"></path>
            <path
                d="M 854.90 337.30 L 856.10 337.50 L 858.10 338.70 L 859.30 340.60 L 859.40 341.90 L 859.30 343.10 L 858.10 345.10 L 856.10 346.20 L 854.90 346.40 L 692.40 346.40 L 691.20 346.20 L 689.20 345.10 L 688.10 343.10 L 687.90 341.90 L 688.10 340.60 L 689.20 338.70 L 691.20 337.50 L 692.40 337.30 Z"
                fill="#cfe2fa" fill-rule="nonzero" group-id="1,8,22" id="矩形_1442" node-id="30"
                stroke="none" target-height="9.100006" target-width="171.5" target-x="687.9"
                target-y="337.3"></path>
            <path
                d="M 777.10 346.40 L 778.40 346.60 L 780.60 347.80 L 781.90 350.00 L 782.00 351.40 L 781.90 352.70 L 780.60 354.90 L 778.40 356.10 L 777.10 356.30 L 692.90 356.30 L 691.50 356.10 L 689.40 354.90 L 688.10 352.70 L 687.90 351.40 L 688.10 350.00 L 689.40 347.80 L 691.50 346.60 L 692.90 346.40 Z"
                fill="#cfe2fa" fill-rule="nonzero" group-id="1,8,23" id="矩形_1443" node-id="31"
                stroke="none" target-height="9.899994" target-width="94.099976" target-x="687.9"
                target-y="346.4"></path>
            <path
                d="M 840.70 356.30 L 841.90 356.50 L 843.90 357.60 L 845.10 359.60 L 845.20 360.80 L 845.10 362.10 L 843.90 364.00 L 841.90 365.20 L 840.70 365.40 L 692.40 365.40 L 691.20 365.20 L 689.20 364.00 L 688.10 362.10 L 687.90 360.80 L 688.10 359.60 L 689.20 357.60 L 691.20 356.50 L 692.40 356.30 Z"
                fill="#cfe2fa" fill-rule="nonzero" group-id="1,8,24" id="矩形_1444" node-id="32"
                stroke="none" target-height="9.100006" target-width="157.29999" target-x="687.9"
                target-y="356.3"></path>
            <path
                d="M 747.10 273.90 L 750.00 274.20 L 752.70 274.90 L 755.10 276.10 L 757.40 277.70 L 759.30 279.60 L 760.90 281.90 L 762.10 284.30 L 762.80 287.00 L 763.10 289.90 L 763.10 620.20 L 762.80 623.10 L 762.10 625.80 L 760.90 628.30 L 759.30 630.50 L 757.40 632.50 L 755.10 634.00 L 752.70 635.20 L 750.00 636.00 L 747.10 636.20 L 247.50 636.20 L 244.60 636.00 L 241.90 635.20 L 239.40 634.00 L 237.20 632.50 L 235.30 630.50 L 233.70 628.30 L 232.50 625.80 L 231.80 623.10 L 231.50 620.20 L 231.50 289.90 L 231.80 287.00 L 232.50 284.30 L 233.70 281.90 L 235.30 279.60 L 237.20 277.70 L 239.40 276.10 L 241.90 274.90 L 244.60 274.20 L 247.50 273.90 Z"
                fill="#458cfb" fill-rule="nonzero" group-id="1,9,25" id="矩形_1402" node-id="34"
                stroke="none" target-height="362.30002" target-width="531.6" target-x="231.5"
                target-y="273.9"></path>
            <path d="M 231.50 318.30 L 763.10 318.30 L 763.10 636.20 L 231.50 636.20 Z"
                fill="#e9f3ff" fill-rule="nonzero" group-id="1,9,26" id="矩形_1404" node-id="35"
                stroke="none" target-height="317.90002" target-width="531.6" target-x="231.5"
                target-y="318.3"></path>
            <path
                d="M 763.10 636.20 L 763.10 650.70 L 762.40 654.20 L 760.70 657.20 L 758.10 659.40 L 754.90 660.60 L 753.10 660.70 L 241.50 660.70 L 239.70 660.60 L 236.50 659.40 L 233.90 657.20 L 232.10 654.20 L 231.50 650.70 L 231.50 636.20 Z"
                fill="#355466" fill-rule="nonzero" group-id="1,9,27" id="矩形_1515" node-id="36"
                stroke="none" target-height="24.5" target-width="531.6" target-x="231.5"
                target-y="636.2"></path>
            <path d="M 395.50 660.70 L 599.10 660.70 L 599.10 685.20 L 395.50 685.20 Z"
                fill="#294457" fill-rule="nonzero" group-id="1,9,28" id="矩形_1516" node-id="37"
                stroke="none" target-height="24.5" target-width="203.59998" target-x="395.5"
                target-y="660.7"></path>
            <path d="M 275.60 685.20 L 718.90 685.20 L 718.90 709.70 L 275.60 709.70 Z"
                fill="#355466" fill-rule="nonzero" group-id="1,9,29" id="矩形_1517" node-id="38"
                stroke="none" target-height="24.5" target-width="443.30002" target-x="275.6"
                target-y="685.2"></path>
            <path
                d="M 250.50 297.90 L 251.10 294.70 L 251.80 293.20 L 253.30 291.30 L 255.20 289.80 L 256.60 289.10 L 259.90 288.50 L 263.20 289.10 L 264.70 289.80 L 266.60 291.30 L 268.10 293.20 L 268.80 294.70 L 269.40 297.90 L 268.80 301.20 L 268.10 302.70 L 266.60 304.60 L 264.70 306.10 L 263.20 306.80 L 259.90 307.40 L 256.60 306.80 L 255.20 306.10 L 253.30 304.60 L 251.80 302.70 L 251.10 301.20 L 250.50 297.90 Z"
                fill="#f92d2d" fill-rule="nonzero" group-id="1,9,30" id="椭圆_356" node-id="39"
                stroke="none" target-height="18.899994" target-width="18.899994" target-x="250.5"
                target-y="288.5"></path>
            <path
                d="M 289.10 297.50 L 289.40 295.10 L 290.30 293.00 L 291.70 291.20 L 293.60 289.70 L 295.70 288.80 L 298.10 288.50 L 300.50 288.80 L 302.60 289.70 L 304.40 291.20 L 305.80 293.00 L 306.70 295.10 L 307.10 297.50 L 306.70 299.90 L 305.80 302.00 L 304.40 303.80 L 302.60 305.30 L 300.50 306.20 L 298.10 306.50 L 295.70 306.20 L 293.60 305.30 L 291.70 303.80 L 290.30 302.00 L 289.40 299.90 L 289.10 297.50 Z"
                fill="#f9de2d" fill-rule="nonzero" group-id="1,9,31" id="椭圆_357" node-id="40"
                stroke="none" target-height="18" target-width="18" target-x="289.1" target-y="288.5"></path>
            <path
                d="M 326.80 297.90 L 327.40 294.70 L 328.10 293.20 L 329.60 291.30 L 331.50 289.80 L 332.90 289.10 L 336.20 288.50 L 339.50 289.10 L 341.00 289.80 L 342.90 291.30 L 344.40 293.20 L 345.10 294.70 L 345.70 297.90 L 345.10 301.20 L 344.40 302.70 L 342.90 304.60 L 341.00 306.10 L 339.50 306.80 L 336.20 307.40 L 332.90 306.80 L 331.50 306.10 L 329.60 304.60 L 328.10 302.70 L 327.40 301.20 L 326.80 297.90 Z"
                fill="#18c45d" fill-rule="nonzero" group-id="1,9,32" id="椭圆_358" node-id="41"
                stroke="none" target-height="18.899994" target-width="18.900024" target-x="326.8"
                target-y="288.5"></path>
            <path d="M 242.70 329.60 L 751.80 329.60 L 751.80 624.90 L 242.70 624.90 Z"
                fill="#ffffff" fill-rule="nonzero" group-id="1,9,33" id="矩形_1518" node-id="42"
                stroke="none" target-height="295.30002" target-width="509.09998" target-x="242.7"
                target-y="329.6"></path>
            <path
                d="M 491.20 467.60 L 254.90 467.60 L 254.90 337.50 L 491.20 337.50 L 491.20 467.60 Z"
                fill="#ffffff" fill-rule="nonzero" group-id="1,9,34,55" node-id="238" stroke="none"
                target-height="130.1" target-width="236.30002" target-x="254.9" target-y="337.5"></path>
            <path
                d="M 255.40 338.00 L 255.40 467.10 L 490.70 467.10 L 490.70 338.00 L 255.40 338.00 M 254.40 337.00 L 491.70 337.00 L 491.70 468.10 L 254.40 468.10 L 254.40 337.00 Z"
                fill="#c5defb" fill-rule="nonzero" group-id="1,9,34,55" node-id="240" stroke="none"
                target-height="131.1" target-width="237.30002" target-x="254.4" target-y="337"></path>
            <path
                d="M 372.80 436.20 L 444.90 379.00 L 491.70 468.10 L 254.40 468.10 L 309.30 414.90 Z"
                fill="#bed7ff" fill-rule="nonzero" group-id="1,9,34,56" id="路径_1242" node-id="47"
                stroke="none" target-height="89.100006" target-width="237.30002" target-x="254.4"
                target-y="379"></path>
            <path
                d="M 343.20 389.60 L 343.50 386.70 L 344.30 384.00 L 345.50 381.60 L 347.20 379.30 L 349.20 377.40 L 351.60 375.80 L 354.20 374.60 L 357.00 373.90 L 360.10 373.60 L 363.10 373.90 L 366.00 374.60 L 368.60 375.80 L 370.90 377.40 L 372.90 379.30 L 374.60 381.60 L 375.90 384.00 L 376.60 386.70 L 376.90 389.60 L 376.60 392.50 L 375.90 395.20 L 374.60 397.70 L 372.90 399.90 L 370.90 401.90 L 368.60 403.40 L 366.00 404.60 L 363.10 405.40 L 360.10 405.60 L 357.00 405.40 L 354.20 404.60 L 351.60 403.40 L 349.20 401.90 L 347.20 399.90 L 345.50 397.70 L 344.30 395.20 L 343.50 392.50 L 343.20 389.60 Z"
                fill="#bed7ff" fill-rule="nonzero" group-id="1,9,34,57" id="椭圆_380" node-id="48"
                stroke="none" target-height="32" target-width="33.69998" target-x="343.2"
                target-y="373.6"></path>
            <path
                d="M 514.90 467.60 L 514.90 454.00 L 732.90 454.00 L 732.90 467.60 Z M 514.90 438.30 L 514.90 424.60 L 732.90 424.60 L 732.90 438.30 Z M 514.90 410.00 L 514.90 396.30 L 732.90 396.30 L 732.90 410.00 Z M 514.90 380.60 L 514.90 367.00 L 732.90 367.00 L 732.90 380.60 Z M 514.90 351.30 L 514.90 337.60 L 732.90 337.60 L 732.90 351.30 Z"
                fill="#bed7ff" fill-rule="nonzero" group-id="1,9,35" id="联合_171" node-id="49"
                stroke="none" target-height="130" target-width="218" target-x="514.9"
                target-y="337.6"></path>
            <path d="M 460.90 546.60 L 480.30 546.60 L 480.30 603.90 L 460.90 603.90 Z"
                fill="#458cfb" fill-rule="nonzero" group-id="1,9,36,58" id="矩形_1445" node-id="51"
                stroke="none" target-height="57.30005" target-width="19.399994" target-x="460.9"
                target-y="546.6"></path>
            <path d="M 511.10 560.60 L 530.50 560.60 L 530.50 603.90 L 511.10 603.90 Z"
                fill="#458cfb" fill-rule="nonzero" group-id="1,9,36,59" id="矩形_1446" node-id="52"
                stroke="none" target-height="43.30005" target-width="19.399994" target-x="511.1"
                target-y="560.6"></path>
            <path d="M 562.40 531.40 L 581.80 531.40 L 581.80 603.90 L 562.40 603.90 Z"
                fill="#458cfb" fill-rule="nonzero" group-id="1,9,36,60" id="矩形_1447" node-id="53"
                stroke="none" target-height="72.5" target-width="19.399963" target-x="562.4"
                target-y="531.4"></path>
            <path d="M 612.60 560.60 L 632.00 560.60 L 632.00 603.90 L 612.60 603.90 Z"
                fill="#458cfb" fill-rule="nonzero" group-id="1,9,36,61" id="矩形_1448" node-id="54"
                stroke="none" target-height="43.30005" target-width="19.400024" target-x="612.6"
                target-y="560.6"></path>
            <path d="M 662.70 531.40 L 682.10 531.40 L 682.10 603.90 L 662.70 603.90 Z"
                fill="#458cfb" fill-rule="nonzero" group-id="1,9,36,62" id="矩形_1449" node-id="55"
                stroke="none" target-height="72.5" target-width="19.399963" target-x="662.7"
                target-y="531.4"></path>
            <path d="M 714.10 504.30 L 733.40 504.30 L 733.40 603.90 L 714.10 603.90 Z"
                fill="#458cfb" fill-rule="nonzero" group-id="1,9,36,63" id="矩形_1450" node-id="56"
                stroke="none" target-height="99.60004" target-width="19.300049" target-x="714.1"
                target-y="504.3"></path>
            <path
                d="M 466.50 538.30 L 517.60 552.60 L 567.80 518.70 L 621.50 552.60 L 671.80 518.70 L 720.30 496.10"
                fill="none" group-id="1,9,36,64" id="路径_1200" node-id="57" stroke="#1e6ce5"
                stroke-linecap="butt" stroke-width="1" target-height="56.49997"
                target-width="253.79999" target-x="466.5" target-y="496.1"></path>
            <path
                d="M 329.20 598.60 L 324.50 598.40 L 319.90 597.70 L 315.40 596.60 L 311.00 595.10 L 306.90 593.20 L 303.10 591.00 L 299.50 588.50 L 296.10 585.60 L 293.00 582.40 L 290.40 579.00 L 288.00 575.30 L 286.00 571.40 L 284.40 567.20 L 283.30 562.90 L 282.60 558.50 L 282.30 554.10 L 282.60 549.70 L 283.30 545.30 L 284.40 541.00 L 286.00 536.80 L 288.00 532.80 L 290.40 529.20 L 293.00 525.80 L 296.10 522.60 L 299.50 519.70 L 303.10 517.10 L 306.90 514.90 L 311.00 513.10 L 315.50 511.50 L 320.00 510.50 L 324.60 509.80 L 329.20 509.60 L 333.90 509.80 L 338.50 510.50 L 343.00 511.50 L 347.50 513.10 L 351.60 514.90 L 355.40 517.10 L 359.00 519.70 L 362.40 522.60 L 365.40 525.80 L 368.10 529.20 L 370.40 532.80 L 372.40 536.80 L 374.00 541.00 L 375.20 545.30 L 375.90 549.70 L 376.10 554.10 L 375.90 558.50 L 375.20 562.90 L 374.00 567.20 L 372.40 571.40 L 370.40 575.30 L 368.10 579.00 L 365.40 582.40 L 362.40 585.60 L 359.00 588.50 L 355.40 591.00 L 351.60 593.20 L 347.50 595.10 L 343.00 596.60 L 338.50 597.70 L 333.90 598.40 L 329.20 598.60 Z M 329.20 525.80 L 325.10 526.10 L 321.30 526.90 L 317.70 528.10 L 314.20 529.70 L 311.10 531.70 L 308.20 534.10 L 305.70 536.90 L 303.60 539.80 L 301.80 543.10 L 300.50 546.60 L 299.80 550.20 L 299.50 554.10 L 299.80 558.00 L 300.50 561.60 L 301.80 565.10 L 303.50 568.30 L 305.70 571.30 L 308.20 574.10 L 311.10 576.40 L 314.20 578.50 L 317.70 580.10 L 321.30 581.30 L 325.10 582.10 L 329.20 582.30 L 333.30 582.10 L 337.20 581.30 L 340.80 580.10 L 344.30 578.50 L 347.40 576.40 L 350.30 574.10 L 352.80 571.30 L 354.90 568.30 L 356.60 565.10 L 357.90 561.60 L 358.70 558.00 L 359.00 554.10 L 358.70 550.20 L 357.90 546.60 L 356.60 543.10 L 354.90 539.80 L 352.80 536.90 L 350.30 534.10 L 347.40 531.70 L 344.30 529.70 L 340.80 528.10 L 337.20 526.90 L 333.30 526.10 L 329.20 525.80 Z"
                fill="#458cfb" fill-rule="nonzero" group-id="1,9,37,65" id="减去_40" node-id="59"
                stroke="none" target-height="88.99997" target-width="93.80002" target-x="282.3"
                target-y="509.6"></path>
            <path
                d="M 329.80 598.60 L 329.80 582.30 L 333.70 582.10 L 337.50 581.40 L 341.20 580.20 L 344.70 578.60 L 348.00 576.50 L 351.00 574.10 L 353.60 571.30 L 355.80 568.30 L 357.50 565.00 L 358.80 561.50 L 359.60 557.90 L 359.90 554.10 L 359.60 550.20 L 358.80 546.60 L 357.50 543.10 L 355.70 539.80 L 353.60 536.90 L 351.00 534.10 L 348.20 531.70 L 345.00 529.70 L 341.50 528.10 L 337.80 526.90 L 333.90 526.10 L 329.80 525.80 L 329.80 509.60 L 334.50 509.80 L 339.20 510.50 L 343.70 511.50 L 348.20 513.10 L 352.30 514.90 L 356.20 517.10 L 359.90 519.70 L 363.30 522.60 L 366.40 525.80 L 369.10 529.20 L 371.40 532.80 L 373.50 536.80 L 375.10 541.00 L 376.30 545.30 L 377.00 549.70 L 377.20 554.10 L 377.00 558.50 L 376.30 562.90 L 375.10 567.20 L 373.50 571.40 L 371.40 575.30 L 369.10 579.00 L 366.40 582.40 L 363.30 585.60 L 359.90 588.50 L 356.20 591.00 L 352.30 593.20 L 348.20 595.10 L 343.70 596.60 L 339.20 597.70 L 334.50 598.40 L 329.80 598.60 Z"
                fill="#fbb245" fill-rule="nonzero" group-id="1,9,37,66" id="减去_42" node-id="60"
                stroke="none" target-height="88.99997" target-width="47.400024" target-x="329.8"
                target-y="509.6"></path>
            <path
                d="M 329.30 598.80 L 329.30 582.50 L 333.20 582.30 L 337.00 581.60 L 340.70 580.40 L 344.20 578.80 L 347.40 576.70 L 350.40 574.20 L 353.10 571.40 L 355.30 568.20 L 357.00 564.70 L 358.30 561.10 L 375.80 561.10 L 375.00 564.70 L 372.60 571.60 L 370.60 575.50 L 368.30 579.10 L 365.60 582.60 L 362.60 585.70 L 359.20 588.70 L 355.50 591.20 L 351.70 593.40 L 347.60 595.30 L 343.20 596.80 L 338.60 597.90 L 334.00 598.60 L 329.30 598.80 Z"
                fill="#c62bcb" fill-rule="nonzero" group-id="1,9,37,67" id="减去_45" node-id="61"
                stroke="none" target-height="37.700012" target-width="46.5" target-x="329.3"
                target-y="561.1"></path>
            <path d="M 170.70 732.60 L 161.10 732.60 L 161.10 718.80 L 170.40 720.60 Z"
                fill="#c77760" fill-rule="nonzero" group-id="1,10,38,68,83" hidden="true"
                id="路径_1163" node-id="65" stroke="none" target-height="13.799988"
                target-width="9.599991" target-x="161.1" target-y="718.8" visibility="hidden"></path>
            <path
                d="M 161.20 728.70 L 160.90 740.20 L 192.50 739.70 L 191.60 738.10 L 187.80 735.70 L 178.30 731.50 L 170.70 728.70 Z"
                fill="#272f31" fill-rule="nonzero" group-id="1,10,38,68,84" hidden="true"
                id="路径_1164" node-id="66" stroke="none" target-height="11.5"
                target-width="31.600006" target-x="160.9" target-y="728.7" visibility="hidden"></path>
            <path d="M 232.70 732.60 L 223.10 732.60 L 223.10 718.80 L 232.40 720.60 Z"
                fill="#c77760" fill-rule="nonzero" group-id="1,10,38,69,85" hidden="true"
                id="路径_1163-2" node-id="68" stroke="none" target-height="13.799988"
                target-width="9.599991" target-x="223.1" target-y="718.8" visibility="hidden"></path>
            <path
                d="M 223.20 728.70 L 222.90 740.20 L 254.50 739.70 L 253.60 738.10 L 249.80 735.70 L 240.30 731.50 L 232.70 728.70 Z"
                fill="#272f31" fill-rule="nonzero" group-id="1,10,38,69,86" hidden="true"
                id="路径_1164-2" node-id="69" stroke="none" target-height="11.5"
                target-width="31.600006" target-x="222.9" target-y="728.7" visibility="hidden"></path>
            <path
                d="M 166.80 650.60 L 164.60 670.20 L 160.50 725.00 L 173.50 725.20 L 185.40 661.80 L 189.10 639.90 L 192.10 616.60 L 194.40 590.00 L 211.40 644.10 L 220.50 722.80 L 234.60 722.80 L 231.00 638.60 L 226.40 604.20 L 217.60 544.20 L 169.60 551.30 L 168.70 614.30 L 167.60 643.10 L 166.80 650.60 Z"
                fill="#151f5d" fill-rule="nonzero" group-id="1,10,38,70" hidden="true" id="路径_1199"
                node-id="70" stroke="none" target-height="181" target-width="74.100006"
                target-x="160.5" target-y="544.2" visibility="hidden"></path>
            <path
                d="M 199.40 448.90 L 198.20 450.10 L 196.60 450.90 L 192.10 451.90 L 192.70 470.50 L 179.30 470.50 L 180.20 451.90 L 178.20 450.40 L 176.60 448.50 L 175.30 446.40 L 174.00 442.30 L 173.90 434.40 L 174.70 428.90 L 175.40 426.50 L 176.90 423.80 L 178.30 423.10 L 187.90 425.10 L 200.40 428.60 L 200.60 440.50 L 200.30 445.70 L 199.40 448.90 Z"
                fill="#be6d5c" fill-rule="nonzero" group-id="1,10,39" hidden="true" id="路径_1188"
                node-id="71" stroke="none" target-height="47.399994" target-width="26.700012"
                target-x="173.9" target-y="423.1" visibility="hidden"></path>
            <path
                d="M 177.50 449.40 L 179.10 450.10 L 183.50 450.40 L 191.40 449.10 L 192.30 443.00 L 192.90 440.60 L 194.20 437.60 L 195.40 436.80 L 198.50 436.40 L 200.10 435.80 L 201.40 435.00 L 202.40 433.90 L 202.80 432.40 L 202.80 430.90 L 201.30 426.60 L 201.50 426.10 L 204.70 424.10 L 205.50 423.30 L 205.90 422.30 L 206.10 420.90 L 205.20 418.90 L 202.50 416.50 L 200.20 415.30 L 195.50 413.60 L 193.20 413.30 L 188.10 413.70 L 183.40 413.10 L 181.40 413.10 L 177.20 414.00 L 175.30 414.80 L 173.80 415.90 L 172.70 417.30 L 171.30 421.60 L 169.80 424.10 L 169.60 425.10 L 169.10 429.70 L 169.50 436.00 L 170.10 439.30 L 171.10 442.40 L 172.70 445.30 L 174.00 446.90 L 175.60 448.30 L 177.50 449.40 Z"
                fill="#192360" fill-rule="nonzero" group-id="1,10,40" hidden="true" id="路径_1189"
                node-id="72" stroke="none" target-height="37.299988" target-width="37"
                target-x="169.1" target-y="413.1" visibility="hidden"></path>
            <path
                d="M 192.60 460.50 L 198.20 460.50 L 196.50 462.80 L 193.40 465.60 L 191.30 466.80 L 189.00 467.60 L 186.30 467.80 L 183.50 467.50 L 178.50 465.60 L 176.40 464.40 L 172.10 461.30 L 179.60 461.20 L 182.50 462.20 L 186.60 462.70 L 190.20 462.10 L 192.60 460.50 Z"
                fill="#ffffff" fill-rule="nonzero" group-id="1,10,41" hidden="true" id="路径_1190"
                node-id="73" stroke="none" target-height="7.299988" target-width="26.09999"
                target-x="172.1" target-y="460.5" visibility="hidden"></path>
            <path
                d="M 168.20 553.00 L 176.30 555.60 L 184.90 557.20 L 189.90 557.50 L 195.20 557.40 L 200.00 556.90 L 208.40 555.20 L 215.50 552.50 L 218.20 551.00 L 220.50 549.20 L 222.00 547.30 L 222.90 545.40 L 221.70 540.30 L 220.20 537.70 L 168.20 549.00 Z"
                fill="#ffffff" fill-rule="nonzero" group-id="1,10,42" hidden="true" id="路径_1192"
                node-id="74" stroke="none" target-height="19.799988" target-width="54.699997"
                target-x="168.2" target-y="537.7" visibility="hidden"></path>
            <path
                d="M 148.90 571.50 L 152.00 574.60 L 155.90 576.90 L 157.80 577.50 L 159.30 577.60 L 160.60 576.80 L 160.90 576.00 L 160.30 572.40 L 154.50 559.90 L 152.50 550.40 L 144.60 552.40 L 144.60 556.50 L 145.60 562.30 L 147.00 567.30 L 148.90 571.50 Z"
                fill="#c46956" fill-rule="nonzero" group-id="1,10,43" hidden="true" id="路径_1194"
                node-id="75" stroke="none" target-height="27.199951" target-width="16.299988"
                target-x="144.6" target-y="550.4" visibility="hidden"></path>
            <path
                d="M 143.50 560.80 L 147.20 561.40 L 149.70 561.40 L 152.40 561.00 L 155.20 560.00 L 153.80 553.20 L 143.50 555.90 Z"
                fill="#ffffff" fill-rule="nonzero" group-id="1,10,44" hidden="true" id="路径_1195"
                node-id="76" stroke="none" target-height="8.200012" target-width="11.699997"
                target-x="143.5" target-y="553.2" visibility="hidden"></path>
            <path
                d="M 146.60 495.40 L 142.30 505.60 L 140.50 512.40 L 140.10 515.40 L 140.50 529.30 L 141.90 555.60 L 147.30 556.70 L 149.60 556.90 L 154.00 556.50 L 155.70 555.60 L 155.50 543.90 L 153.90 517.90 L 165.30 492.90 L 165.30 492.30 L 163.50 484.10 L 161.40 477.30 L 159.50 471.60 L 158.20 469.30 L 156.80 471.20 L 154.60 476.00 L 146.60 495.40 Z"
                fill="#4165ff" fill-rule="nonzero" group-id="1,10,45" hidden="true" id="路径_1193"
                node-id="77" stroke="none" target-height="87.60004" target-width="25.199997"
                target-x="140.1" target-y="469.3" visibility="hidden"></path>
            <path
                d="M 255.80 418.90 L 256.40 412.10 L 256.80 411.50 L 257.40 411.40 L 258.00 411.80 L 258.60 412.90 L 259.30 417.70 L 262.80 405.80 L 263.80 404.10 L 264.50 403.90 L 265.10 404.00 L 266.40 404.90 L 265.00 415.10 L 270.30 417.70 L 272.50 419.90 L 272.90 421.10 L 272.20 424.80 L 270.50 428.40 L 269.50 429.80 L 266.40 432.60 L 262.40 433.70 L 258.80 428.70 L 257.10 425.80 L 255.80 421.40 L 255.80 418.90 Z"
                fill="#b36a59" fill-rule="nonzero" group-id="1,10,46" hidden="true" id="路径_1197"
                node-id="78" stroke="none" target-height="29.800018" target-width="17.09999"
                target-x="255.8" target-y="403.9" visibility="hidden"></path>
            <path
                d="M 258.00 427.60 L 265.90 428.50 L 268.30 429.60 L 268.70 431.00 L 267.80 432.80 L 265.10 435.90 L 256.90 431.90 L 257.40 429.60 Z"
                fill="#ffffff" fill-rule="nonzero" group-id="1,10,47" hidden="true" id="路径_1198"
                node-id="79" stroke="none" target-height="8.299988" target-width="11.800018"
                target-x="256.9" target-y="427.6" visibility="hidden"></path>
            <path
                d="M 238.80 460.00 L 244.20 451.80 L 257.40 429.80 L 262.00 429.60 L 265.70 430.00 L 267.30 430.50 L 268.50 431.20 L 268.60 432.90 L 267.10 438.10 L 261.50 451.20 L 252.20 470.20 L 250.70 472.30 L 249.50 473.50 L 247.60 474.60 L 245.30 475.40 L 242.20 476.00 L 213.00 479.80 L 201.00 465.20 L 208.70 461.20 L 230.40 460.70 L 238.80 460.00 Z"
                fill="#3e68f8" fill-rule="nonzero" group-id="1,10,48" hidden="true" id="路径_1196"
                node-id="80" stroke="none" target-height="50.19998" target-width="67.600006"
                target-x="201" target-y="429.6" visibility="hidden"></path>
            <path
                d="M 158.00 469.60 L 159.50 472.40 L 160.70 475.70 L 162.20 483.00 L 162.70 490.00 L 162.70 497.40 L 168.10 549.50 L 172.80 551.20 L 177.60 552.50 L 182.50 553.30 L 187.50 553.70 L 192.40 553.60 L 197.40 553.10 L 205.10 551.30 L 212.70 548.10 L 218.80 544.00 L 222.10 540.90 L 220.10 505.50 L 218.30 484.20 L 217.30 479.30 L 215.00 478.10 L 213.20 476.70 L 211.90 475.10 L 210.50 472.40 L 209.70 469.70 L 209.30 466.90 L 209.40 461.30 L 205.10 460.60 L 200.80 460.30 L 196.50 460.70 L 194.40 462.80 L 192.00 464.40 L 189.30 465.40 L 186.50 465.90 L 184.40 465.80 L 180.60 464.80 L 177.30 462.70 L 175.80 461.30 L 170.40 461.70 L 165.50 462.80 L 163.10 463.90 L 159.70 466.50 L 158.00 469.60 Z"
                fill="#1a2261" fill-rule="nonzero" group-id="1,10,49" hidden="true" id="路径_1191"
                node-id="81" stroke="none" target-height="93.400024" target-width="64.100006"
                target-x="158" target-y="460.3" visibility="hidden"></path>
            <path
                d="M 855.00 643.90 L 855.00 733.70 L 854.00 735.00 L 850.60 736.90 L 843.60 738.70 L 831.70 740.00 L 823.00 740.20 L 812.30 739.90 L 804.80 739.20 L 798.30 738.10 L 794.30 736.90 L 791.00 735.60 L 788.30 733.70 L 788.30 643.90 Z"
                fill="url(#linear-gradient)" fill-rule="nonzero" group-id="1,11,50" id="路径_1167"
                node-id="83" stroke="none" target-height="96.29999" target-width="66.70001"
                target-x="788.3" target-y="643.9"></path>
            <path
                d="M 787.90 644.30 L 788.20 643.50 L 789.00 642.60 L 790.60 641.70 L 793.50 640.60 L 797.80 639.60 L 808.50 638.10 L 821.60 637.60 L 834.70 638.10 L 845.40 639.60 L 849.80 640.60 L 852.70 641.70 L 854.30 642.60 L 855.10 643.50 L 855.30 644.30 L 855.10 645.10 L 854.30 645.90 L 852.70 646.90 L 849.80 647.90 L 845.40 649.00 L 834.70 650.40 L 821.60 650.90 L 808.50 650.40 L 797.80 649.00 L 793.50 647.90 L 790.60 646.90 L 789.00 645.90 L 788.20 645.10 L 787.90 644.30 Z"
                fill="#b7bbc2" fill-rule="nonzero" group-id="1,11,51" id="椭圆_359" node-id="84"
                stroke="none" target-height="13.300049" target-width="67.39996" target-x="787.9"
                target-y="637.6"></path>
            <path
                d="M 791.50 646.90 L 791.80 646.40 L 792.90 645.70 L 799.80 644.10 L 813.10 643.10 L 821.20 642.90 L 829.30 643.10 L 842.50 644.10 L 846.80 644.90 L 849.50 645.70 L 850.60 646.40 L 850.90 646.90 L 850.60 647.50 L 849.50 648.10 L 846.80 648.90 L 842.50 649.70 L 829.30 650.80 L 821.20 650.90 L 813.10 650.80 L 799.80 649.70 L 792.90 648.10 L 791.80 647.50 L 791.50 646.90 Z"
                fill="#769be5" fill-rule="nonzero" group-id="1,11,52" id="椭圆_360" node-id="85"
                stroke="none" target-height="8" target-width="59.400024" target-x="791.5"
                target-y="642.9"></path>
            <path
                d="M 834.50 623.00 L 833.60 619.40 L 832.10 615.40 L 828.20 610.90 L 827.30 609.20 L 826.00 603.80 L 825.70 597.80 L 826.60 594.00 L 827.30 593.10 L 829.70 592.10 L 831.30 590.90 L 834.00 587.40 L 835.00 585.20 L 835.40 581.80 L 834.50 579.40 L 833.10 578.00 L 826.30 574.70 L 823.90 572.40 L 822.60 569.30 L 822.20 566.40 L 823.00 555.60 L 822.80 553.60 L 822.30 552.50 L 821.50 551.60 L 820.30 550.90 L 818.40 550.40 L 816.40 550.30 L 812.10 551.20 L 808.30 553.30 L 805.50 556.10 L 803.80 559.30 L 802.50 560.50 L 796.80 563.90 L 795.90 564.70 L 795.60 565.70 L 795.80 566.90 L 796.50 568.30 L 799.90 573.50 L 800.40 575.10 L 797.70 577.40 L 795.50 580.30 L 793.90 586.30 L 793.20 587.50 L 789.40 590.30 L 788.70 591.30 L 788.40 593.00 L 788.40 595.10 L 789.80 602.00 L 790.20 606.00 L 789.70 608.20 L 787.90 612.20 L 786.80 620.20 L 786.50 625.50 L 786.80 627.10 L 788.10 629.80 L 790.70 631.90 L 792.90 632.80 L 797.30 633.80 L 800.90 634.10 L 804.40 634.00 L 813.80 632.80 L 824.40 632.10 L 829.90 630.80 L 831.50 630.00 L 833.80 627.90 L 834.40 626.60 L 834.60 625.00 L 834.50 623.00 Z"
                fill="#adbbb4" fill-rule="nonzero" group-id="1,11,53,71" id="路径_1168" node-id="87"
                stroke="none" target-height="83.79999" target-width="48.900024" target-x="786.5"
                target-y="550.3"></path>
            <path
                d="M 814.00 557.40 L 811.40 572.20 L 809.30 587.40 L 807.70 605.00 L 807.30 614.10 L 807.80 628.60 L 809.30 638.80 L 810.60 643.50 L 812.20 647.40 L 814.00 650.70"
                fill="none" group-id="1,11,53,72" id="路径_1169" node-id="88" stroke="#ababab"
                stroke-linecap="butt" stroke-width="0.6" target-height="93.29999"
                target-width="6.700012" target-x="807.3" target-y="557.4"></path>
            <path d="M 818.60 566.20 L 810.80 576.00 L 806.70 570.50" fill="none"
                group-id="1,11,53,73" id="路径_1170" node-id="89" stroke="#ababab"
                stroke-linecap="butt" stroke-width="0.6" target-height="9.799988"
                target-width="11.899963" target-x="806.7" target-y="566.2"></path>
            <path
                d="M 823.70 582.50 L 820.50 583.80 L 817.70 585.60 L 815.10 587.80 L 813.00 590.00 L 808.80 595.40 L 804.30 589.20 L 800.30 584.90"
                fill="none" group-id="1,11,53,74" id="路径_1171" node-id="90" stroke="#ababab"
                stroke-linecap="butt" stroke-width="0.6" target-height="12.900024"
                target-width="23.400024" target-x="800.3" target-y="582.5"></path>
            <path
                d="M 822.00 603.20 L 819.30 604.40 L 814.10 608.30 L 811.90 610.50 L 807.20 616.20 L 805.40 612.20 L 802.20 606.80 L 798.40 602.60 L 794.80 600.40"
                fill="none" group-id="1,11,53,75" id="路径_1172" node-id="91" stroke="#ababab"
                stroke-linecap="butt" stroke-width="0.6" target-height="15.799988"
                target-width="27.200012" target-x="794.8" target-y="600.4"></path>
            <path
                d="M 816.70 621.60 L 815.00 622.10 L 811.90 624.50 L 807.90 630.00 L 796.20 625.60"
                fill="none" group-id="1,11,53,76" id="路径_1173" node-id="92" stroke="#ababab"
                stroke-linecap="butt" stroke-width="0.6" target-height="8.400024"
                target-width="20.5" target-x="796.2" target-y="621.6"></path>
            <path
                d="M 802.50 617.70 L 803.50 613.40 L 805.30 608.70 L 806.10 607.50 L 810.00 603.30 L 810.80 601.90 L 811.60 599.60 L 812.60 594.20 L 812.90 588.50 L 812.60 585.90 L 811.50 582.80 L 810.80 582.10 L 808.20 581.10 L 806.20 579.60 L 804.50 577.70 L 803.00 575.40 L 801.90 572.90 L 801.30 570.40 L 801.30 568.70 L 802.50 565.90 L 804.10 564.30 L 812.20 560.30 L 815.00 557.60 L 816.60 553.90 L 817.00 550.50 L 816.10 537.60 L 816.40 535.30 L 816.90 534.00 L 817.80 532.90 L 819.30 532.00 L 822.80 531.30 L 824.70 531.30 L 827.50 531.90 L 830.20 532.90 L 832.80 534.30 L 835.00 536.10 L 836.70 538.10 L 838.90 542.00 L 840.40 543.50 L 847.20 547.50 L 848.30 548.50 L 848.60 549.70 L 848.40 551.10 L 847.70 552.70 L 843.60 558.90 L 842.90 560.80 L 846.30 563.60 L 848.60 566.70 L 849.50 568.80 L 850.80 574.20 L 851.60 575.50 L 856.10 578.90 L 856.80 580.10 L 857.30 582.10 L 857.20 584.60 L 855.50 592.80 L 855.10 597.60 L 855.70 600.10 L 857.30 603.40 L 857.80 605.00 L 859.10 614.40 L 859.50 620.70 L 859.20 622.60 L 857.60 625.90 L 856.30 627.20 L 854.50 628.40 L 851.90 629.40 L 845.20 630.80 L 838.20 630.90 L 827.10 629.40 L 814.40 628.60 L 810.90 628.00 L 807.80 627.00 L 806.00 626.10 L 803.30 623.60 L 802.60 622.10 L 802.30 620.20 L 802.50 617.70 Z"
                fill="#cbd7d1" fill-rule="nonzero" group-id="1,11,54,77" id="路径_1168-2" node-id="94"
                stroke="none" target-height="99.60004" target-width="58.200012" target-x="801.3"
                target-y="531.3"></path>
            <path
                d="M 826.70 539.80 L 829.30 553.50 L 832.50 576.50 L 834.20 595.00 L 834.70 613.80 L 834.30 622.60 L 833.00 633.80 L 831.90 638.60 L 830.50 643.30 L 828.70 647.30 L 826.70 650.70"
                fill="none" group-id="1,11,54,78" id="路径_1169-2" node-id="95" stroke="#707070"
                stroke-linecap="butt" stroke-width="0.6" target-height="110.900024" target-width="8"
                target-x="826.7" target-y="539.8"></path>
            <path d="M 821.30 550.20 L 830.60 561.90 L 835.50 555.40" fill="none"
                group-id="1,11,54,79" id="路径_1170-2" node-id="96" stroke="#707070"
                stroke-linecap="butt" stroke-width="0.6" target-height="11.700012"
                target-width="14.200012" target-x="821.3" target-y="550.2"></path>
            <path
                d="M 815.30 569.60 L 820.20 571.80 L 825.50 575.90 L 830.20 581.10 L 832.90 585.00 L 839.50 576.20 L 843.10 572.40"
                fill="none" group-id="1,11,54,80" id="路径_1171-2" node-id="97" stroke="#707070"
                stroke-linecap="butt" stroke-width="0.6" target-height="15.400024"
                target-width="27.799988" target-x="815.3" target-y="569.6"></path>
            <path
                d="M 817.30 594.30 L 821.50 596.30 L 826.60 600.30 L 829.30 602.90 L 834.90 609.70 L 837.00 604.90 L 840.80 598.50 L 845.30 593.50 L 849.70 590.80"
                fill="none" group-id="1,11,54,81" id="路径_1172-2" node-id="98" stroke="#707070"
                stroke-linecap="butt" stroke-width="0.6" target-height="18.900024"
                target-width="32.400024" target-x="817.3" target-y="590.8"></path>
            <path
                d="M 823.60 616.10 L 825.60 616.70 L 827.50 617.90 L 829.30 619.50 L 830.90 621.30 L 834.10 626.10 L 847.90 620.90"
                fill="none" group-id="1,11,54,82" id="路径_1173-2" node-id="99" stroke="#707070"
                stroke-linecap="butt" stroke-width="0.6" target-height="10" target-width="24.300049"
                target-x="823.6" target-y="616.1"></path>
        </g>
    </g>
</svg>