<?xml version="1.0" standalone="no"?><!DOCTYPE svg PUBLIC "-//W3C//DTD SVG 1.1//EN" "http://www.w3.org/Graphics/SVG/1.1/DTD/svg11.dtd"><svg height="104" node-id="1" sillyvg="true" template-height="104" template-width="122" version="1.1" viewBox="0 0 122 104" width="122" xmlns="http://www.w3.org/2000/svg" xmlns:xlink="http://www.w3.org/1999/xlink"><defs node-id="21"></defs><g node-id="23"><g node-id="24"><g node-id="25"><path d="M 15.00 82.30 L 14.40 82.10 L 14.20 81.50 L 14.40 80.90 L 15.00 80.70 L 85.00 80.70 L 85.60 80.90 L 85.80 81.50 L 85.60 82.10 L 85.00 82.30 L 15.00 82.30 Z M 89.00 82.30 L 88.40 82.10 L 88.20 81.50 L 88.40 80.90 L 89.00 80.70 L 91.50 80.70 L 92.10 80.90 L 92.30 81.50 L 92.10 82.10 L 91.50 82.30 L 89.00 82.30 Z M 98.00 82.30 L 97.40 82.10 L 97.20 81.50 L 97.40 80.90 L 98.00 80.70 L 107.00 80.70 L 107.60 80.90 L 107.80 81.50 L 107.60 82.10 L 107.00 82.30 L 98.00 82.30 Z M 38.00 89.80 L 37.40 89.60 L 37.20 89.00 L 37.40 88.40 L 38.00 88.20 L 45.00 88.20 L 45.60 88.40 L 45.80 89.00 L 45.60 89.60 L 45.00 89.80 L 38.00 89.80 Z M 49.50 89.80 L 48.90 89.60 L 48.70 89.00 L 48.90 88.40 L 49.50 88.20 L 80.00 88.20 L 80.60 88.40 L 80.80 89.00 L 80.60 89.60 L 80.00 89.80 L 49.50 89.80 Z M 94.20 62.00 L 94.50 61.40 L 95.00 61.20 L 95.50 61.40 L 95.80 62.00 L 95.60 65.60 L 92.00 65.80 L 91.40 65.50 L 91.20 65.00 L 91.40 64.50 L 92.00 64.20 L 94.20 64.20 L 94.20 62.00 Z M 95.80 68.00 L 95.50 68.60 L 95.00 68.80 L 94.50 68.60 L 94.20 68.00 L 94.40 64.40 L 98.00 64.20 L 98.60 64.50 L 98.80 65.00 L 98.60 65.50 L 98.00 65.80 L 95.80 65.80 L 95.80 68.00 Z M 18.20 38.00 L 18.50 37.40 L 19.00 37.20 L 19.50 37.40 L 19.80 38.00 L 19.60 41.60 L 16.00 41.80 L 15.40 41.50 L 15.20 41.00 L 15.40 40.50 L 16.00 40.20 L 18.20 40.20 L 18.20 38.00 Z M 92.30 12.70 L 95.00 12.70 L 95.60 13.00 L 95.80 13.50 L 95.60 14.00 L 95.00 14.30 L 92.30 14.30 L 92.30 17.00 L 92.00 17.60 L 91.50 17.80 L 91.00 17.60 L 90.70 17.00 L 90.70 14.30 L 88.00 14.30 L 87.40 14.00 L 87.20 13.50 L 87.40 13.00 L 88.00 12.70 L 90.70 12.70 L 90.70 10.00 L 91.00 9.40 L 91.50 9.20 L 92.00 9.40 L 92.30 10.00 L 92.30 12.70 Z M 19.80 44.00 L 19.50 44.60 L 19.00 44.80 L 18.50 44.60 L 18.20 44.00 L 18.40 40.40 L 22.00 40.20 L 22.60 40.50 L 22.80 41.00 L 22.60 41.50 L 22.00 41.80 L 19.80 41.80 L 19.80 44.00 Z M 28.30 70.30 L 28.70 70.20 L 29.20 70.70 L 27.60 72.30 L 26.20 71.10 L 26.20 70.30 L 26.90 70.30 L 27.60 71.10 L 28.30 70.30 Z M 26.90 73.20 L 26.50 73.30 L 26.00 72.80 L 27.60 71.30 L 29.00 72.50 L 29.00 73.20 L 28.30 73.20 L 27.60 72.50 L 26.90 73.20 Z M 54.10 22.00 L 54.50 21.80 L 55.00 22.30 L 53.40 23.90 L 52.00 22.70 L 52.00 22.00 L 52.70 22.00 L 53.40 22.70 L 54.10 22.00 Z M 52.70 24.80 L 52.30 25.00 L 51.80 24.50 L 53.40 22.90 L 54.80 24.10 L 54.80 24.80 L 54.10 24.80 L 53.40 24.10 L 52.70 24.80 Z" fill="#c3cbd6" fill-rule="nonzero" group-id="1,2,3" id="Path" node-id="10" stroke="none" target-height="80.600006" target-width="93.600006" target-x="14.2" target-y="9.2"></path><g node-id="26"><path d="M 37.00 35.00 L 85.00 35.00 L 86.40 35.60 L 87.00 37.00 L 87.00 71.00 L 86.80 71.80 L 85.80 72.80 L 37.00 73.00 L 35.60 72.40 L 35.00 71.00 L 35.00 37.00 L 35.60 35.60 L 37.00 35.00 Z" fill="#ffffff" fill-rule="evenodd" group-id="1,2,3,4" id="矩形" node-id="12" stroke="#c3cbd6" stroke-linecap="round" stroke-width="1.6" target-height="38" target-width="52" target-x="35" target-y="35"></path><g node-id="27"><path d="M 65.30 58.00 L 65.10 52.30 L 64.00 51.20 L 63.20 51.00 L 58.80 51.00 L 57.30 51.60 L 56.70 53.20 L 56.70 58.00" fill="none" group-id="1,2,3,4,5" id="Stroke-3" node-id="14" stroke="#c3cbd6" stroke-linecap="round" stroke-width="1.6333333" target-height="7" target-width="8.600002" target-x="56.7" target-y="51"></path><path d="M 66.90 58.00 L 54.70 58.10 L 54.00 59.10 L 54.00 63.90 L 54.30 64.70 L 55.10 65.00 L 67.30 64.90 L 68.00 63.90 L 68.00 59.10 L 67.70 58.30 L 66.90 58.00 Z" fill="#f5f7f9" fill-rule="evenodd" group-id="1,2,3,4,5" id="Stroke-1" node-id="15" stroke="#c3cbd6" stroke-linecap="round" stroke-width="1.1666666" target-height="7" target-width="14" target-x="54" target-y="58"></path><path d="M 60.80 61.20 L 61.50 61.40 L 61.70 63.10 L 60.30 63.10 L 60.50 61.40 L 60.80 61.20 Z" fill="#c3cbd6" fill-rule="evenodd" group-id="1,2,3,4,5" id="Path" node-id="16" stroke="none" target-height="1.8999977" target-width="1.4000015" target-x="60.3" target-y="61.2"></path></g><path d="M 37.00 35.00 L 85.00 35.00 L 85.80 35.20 L 86.80 36.20 L 87.00 42.00 L 35.00 42.00 L 35.20 36.20 L 36.20 35.20 L 37.00 35.00 Z" fill="#f5f7f9" fill-rule="evenodd" group-id="1,2,3,4" id="矩形-copy" node-id="17" stroke="#c3cbd6" stroke-linecap="round" stroke-width="1.6" target-height="7" target-width="52" target-x="35" target-y="35"></path><path d="M 47.00 38.50 L 46.90 39.10 L 46.10 39.90 L 44.90 39.90 L 44.10 39.10 L 44.10 37.90 L 44.90 37.10 L 46.10 37.10 L 46.90 37.90 L 47.00 38.50 Z" fill="#c3cbd6" fill-rule="evenodd" group-id="1,2,3,4" id="椭圆形" node-id="18" stroke="none" target-height="2.800003" target-width="2.9000015" target-x="44.1" target-y="37.1"></path><g node-id="28"><path d="M 39.30 38.50 L 38.60 37.80 L 38.60 37.10 L 39.30 37.10 L 40.00 37.80 L 40.70 37.10 L 41.40 37.10 L 41.40 37.80 L 40.70 38.50 L 41.40 39.30 L 41.40 40.00 L 40.70 40.00 L 40.00 39.30 L 39.30 40.00 L 38.60 40.00 L 38.60 39.30 L 39.30 38.50 Z" fill="#c3cbd6" fill-rule="nonzero" group-id="1,2,3,4,6" id="路径" node-id="19" stroke="none" target-height="2.9000015" target-width="2.800003" target-x="38.6" target-y="37.1"></path></g></g></g></g></g></svg>