<?xml version="1.0" standalone="no"?><!DOCTYPE svg PUBLIC "-//W3C//DTD SVG 1.1//EN" "http://www.w3.org/Graphics/SVG/1.1/DTD/svg11.dtd"><svg height="400" node-id="1" sillyvg="true" template-height="400" template-width="600" version="1.1" viewBox="0 0 600 400" width="600" xmlns="http://www.w3.org/2000/svg" xmlns:xlink="http://www.w3.org/1999/xlink"><defs node-id="118"></defs><path d="M -0.35 -0.10 L 599.65 -0.10 L 599.65 399.90 L -0.35 399.90 Z" fill="#ffffff" fill-opacity="0" fill-rule="nonzero" node-id="121" stroke="none" target-height="400" target-width="600" target-x="-0.34999847" target-y="-0.1000061"></path><path d="M 143.90 330.40 L 136.60 330.20 L 129.60 329.60 L 117.00 327.40 L 111.20 325.80 L 104.00 323.20 L 97.30 320.10 L 91.00 316.60 L 85.30 312.70 L 79.80 308.20 L 74.70 303.40 L 70.00 298.20 L 65.70 292.60 L 61.80 286.80 L 58.30 280.60 L 55.10 274.00 L 52.20 267.10 L 49.80 260.10 L 45.90 245.40 L 44.40 237.60 L 43.00 227.20 L 42.20 216.50 L 41.90 205.50 L 42.10 195.40 L 42.80 185.90 L 43.80 177.10 L 45.30 168.80 L 47.00 161.10 L 49.30 153.10 L 51.90 145.80 L 54.70 139.20 L 57.80 133.10 L 61.10 127.60 L 65.00 122.10 L 69.00 117.40 L 73.30 113.20 L 77.60 109.50 L 82.20 106.50 L 87.20 103.80 L 92.20 101.80 L 97.40 100.30 L 102.80 99.40 L 108.40 99.10 L 113.70 99.40 L 118.20 100.10 L 121.90 101.30 L 125.40 102.90 L 128.50 104.80 L 131.20 106.90 L 134.90 110.60 L 144.70 123.00 L 148.30 127.00 L 152.50 130.70 L 155.60 132.80 L 159.20 134.70 L 163.40 136.30 L 167.70 137.40 L 172.90 138.20 L 179.10 138.50 L 183.20 138.20 L 187.10 137.40 L 191.00 136.20 L 194.80 134.50 L 199.50 131.60 L 204.40 128.10 L 209.20 123.90 L 216.10 117.00 L 223.10 109.00 L 244.60 83.30 L 252.20 74.90 L 257.60 69.50 L 263.10 64.60 L 268.80 60.00 L 278.00 54.00 L 287.70 49.50 L 292.80 47.80 L 298.10 46.50 L 303.70 45.70 L 309.50 45.50 L 314.90 45.70 L 319.40 46.30 L 323.30 47.20 L 326.70 48.50 L 330.00 50.10 L 332.80 52.00 L 335.30 54.10 L 337.40 56.50 L 339.80 60.10 L 341.80 63.90 L 343.40 68.20 L 345.20 74.90 L 346.60 82.00 L 349.70 103.70 L 351.10 110.40 L 352.40 114.70 L 354.10 118.60 L 356.10 122.10 L 357.90 124.50 L 360.00 126.60 L 362.40 128.50 L 365.20 130.10 L 368.10 131.30 L 371.50 132.30 L 375.50 132.90 L 380.20 133.10 L 390.60 132.90 L 432.30 130.80 L 441.90 130.90 L 448.30 131.30 L 454.30 132.20 L 460.00 133.30 L 468.20 136.10 L 475.50 140.00 L 478.80 142.50 L 481.90 145.30 L 484.80 148.70 L 487.50 152.50 L 489.80 156.40 L 491.90 161.00 L 493.70 166.30 L 495.40 172.30 L 497.40 184.90 L 497.90 192.50 L 498.40 207.80 L 499.90 220.60 L 501.20 226.60 L 503.40 234.60 L 506.10 242.20 L 509.10 249.40 L 512.60 256.40 L 520.00 269.30 L 526.10 278.40 L 532.20 286.50 L 548.70 307.30 L 554.80 316.20 L 557.10 321.70 L 557.40 323.70 L 557.20 325.30 L 556.60 326.80 L 555.50 328.20 L 554.20 329.20 L 552.30 330.20 L 545.90 332.00 L 534.70 333.10 L 526.40 333.30 L 374.50 332.40 L 143.90 330.40 Z" fill="#f3f9ff" fill-rule="nonzero" id="bg_4_" node-id="6" stroke="none" target-height="287.8" target-width="515.5" target-x="41.9" target-y="45.5"></path><g node-id="123"><path d="M 492.80 310.10 L 489.40 301.60 L 488.10 297.00 L 487.30 292.40 L 487.20 289.40 L 487.60 286.50 L 488.60 283.60 L 489.60 281.60 L 492.90 277.90 L 497.90 274.20 L 499.60 272.50 L 501.40 269.50 L 501.60 266.50 L 501.00 264.30 L 497.50 256.20 L 496.50 253.00 L 496.10 249.40 L 496.60 244.70 L 498.80 240.10 L 500.60 237.90 L 507.90 230.80 L 509.00 228.50 L 508.60 212.40 L 508.80 208.70 L 509.30 206.20 L 510.80 203.40 L 512.00 202.30 L 515.00 200.70 L 518.50 200.30 L 522.10 201.40 L 523.70 202.50 L 525.20 204.20 L 526.70 206.50 L 527.80 209.00 L 528.60 212.30 L 530.50 228.50 L 531.70 233.60 L 533.30 238.30 L 534.70 241.40 L 539.90 249.70 L 540.50 251.60 L 540.60 253.50 L 539.80 257.30 L 537.20 262.10 L 531.90 270.30 L 531.10 272.00 L 530.40 275.20 L 530.80 277.30 L 531.40 279.00 L 535.60 285.20 L 536.50 287.30 L 537.30 290.20 L 537.70 293.50 L 537.70 298.10 L 537.20 302.20 L 535.30 309.50 L 532.20 315.90 L 528.10 321.00 L 525.80 322.90 L 523.40 324.40 L 520.90 325.50 L 518.40 326.10 L 515.80 326.20 L 513.10 325.80 L 509.90 324.80 L 503.30 321.60 L 500.10 319.30 L 497.20 316.60 L 495.50 314.60 L 492.80 310.10 Z" fill="#dceefd" fill-rule="nonzero" group-id="1" id="Path" node-id="8" stroke="none" target-height="125.90001" target-width="53.399963" target-x="487.2" target-y="200.3"></path><path d="M 519.20 331.70 L 519.80 331.20 L 519.50 328.50 L 515.10 314.50 L 513.80 309.50 L 512.80 304.20 L 512.20 298.80 L 512.30 293.50 L 512.90 288.50 L 518.20 263.40 L 519.50 254.60 L 519.60 250.40 L 518.50 238.30 L 518.70 229.60 L 519.70 218.20 L 519.60 216.20 L 519.30 215.80 L 518.80 215.70 L 518.30 216.50 L 517.20 233.90 L 517.30 242.80 L 518.20 250.50 L 518.10 254.60 L 516.80 263.20 L 511.50 288.30 L 510.90 293.40 L 510.90 298.90 L 511.40 304.40 L 512.50 309.80 L 513.80 314.80 L 518.00 328.30 L 518.60 331.40 L 519.20 331.70 Z" fill="#d0e7fe" fill-rule="nonzero" group-id="1" id="Path" node-id="9" stroke="none" target-height="116.000015" target-width="8.899994" target-x="510.9" target-y="215.7"></path><path d="M 520.70 260.60 L 522.30 260.40 L 525.10 258.90 L 527.60 255.60 L 527.30 254.70 L 526.80 254.70 L 526.40 255.00 L 524.30 257.70 L 523.20 258.50 L 521.90 259.10 L 520.50 259.30 L 518.30 258.90 L 517.90 259.80 L 518.30 260.10 L 520.70 260.60 Z" fill="#d0e7fe" fill-rule="nonzero" group-id="1" id="Path" node-id="10" stroke="none" target-height="5.900009" target-width="9.699951" target-x="517.9" target-y="254.7"></path><path d="M 518.80 249.40 L 519.50 248.80 L 519.40 248.30 L 515.10 246.50 L 513.50 245.50 L 510.70 242.40 L 509.40 239.90 L 508.90 239.90 L 508.50 240.20 L 508.50 240.70 L 509.50 243.10 L 511.00 245.00 L 514.30 247.60 L 518.80 249.40 Z" fill="#d0e7fe" fill-rule="nonzero" group-id="1" id="Path" node-id="11" stroke="none" target-height="9.5" target-width="11" target-x="508.5" target-y="239.9"></path><path d="M 511.60 294.10 L 514.90 293.70 L 516.90 293.10 L 518.80 292.20 L 520.70 290.80 L 522.70 288.20 L 523.50 286.40 L 523.00 285.50 L 522.50 285.60 L 522.20 286.00 L 521.50 287.60 L 519.70 289.90 L 516.30 291.90 L 511.10 293.00 L 510.90 293.40 L 511.60 294.10 Z" fill="#d0e7fe" fill-rule="nonzero" group-id="1" id="Path" node-id="12" stroke="none" target-height="8.600006" target-width="12.600006" target-x="510.9" target-y="285.5"></path><path d="M 512.20 305.30 L 512.80 304.90 L 512.80 304.40 L 512.40 304.00 L 505.50 300.00 L 501.50 296.50 L 499.10 292.90 L 498.30 289.60 L 498.10 289.10 L 497.60 288.90 L 496.90 289.70 L 497.70 293.20 L 500.20 297.10 L 502.20 299.10 L 506.50 302.40 L 512.20 305.30 Z" fill="#d0e7fe" fill-rule="nonzero" group-id="1" id="Path" node-id="13" stroke="none" target-height="16.399994" target-width="15.899994" target-x="496.9" target-y="288.9"></path></g><g node-id="124"><path d="M 482.70 317.40 L 485.80 308.80 L 486.30 305.70 L 486.10 301.80 L 484.50 298.20 L 483.10 296.50 L 478.90 293.30 L 477.10 290.90 L 476.90 288.40 L 480.10 280.30 L 480.50 277.30 L 480.40 275.20 L 479.20 272.00 L 477.80 270.00 L 473.20 265.50 L 472.20 264.10 L 471.90 262.70 L 472.20 252.80 L 471.80 248.70 L 470.40 246.50 L 469.30 245.70 L 466.60 244.80 L 465.10 244.90 L 463.60 245.40 L 462.30 246.30 L 460.90 247.80 L 459.90 249.60 L 459.10 252.10 L 457.70 263.40 L 457.00 266.80 L 455.90 270.00 L 454.40 273.00 L 451.40 277.80 L 451.00 279.40 L 451.20 281.00 L 452.00 283.30 L 456.30 290.20 L 457.40 292.40 L 457.80 294.30 L 457.50 296.10 L 456.90 297.30 L 454.30 301.20 L 453.50 303.30 L 453.10 305.70 L 453.00 309.50 L 453.50 313.10 L 454.30 316.30 L 455.50 319.20 L 457.10 321.90 L 458.90 324.10 L 460.80 325.90 L 463.00 327.20 L 465.20 327.90 L 467.40 328.10 L 469.90 327.60 L 472.80 326.60 L 475.70 325.00 L 480.20 321.30 L 482.70 317.40 Z" fill="#8ae6b9" fill-rule="nonzero" group-id="2" id="Path" node-id="15" stroke="none" target-height="83.3" target-width="35.299988" target-x="451" target-y="244.8"></path><path d="M 465.20 331.70 L 464.80 331.40 L 465.00 329.60 L 468.80 317.00 L 469.80 310.00 L 469.40 303.10 L 466.20 288.00 L 465.00 280.60 L 465.00 277.90 L 465.70 269.90 L 464.90 256.60 L 465.00 255.30 L 465.50 255.00 L 465.80 255.50 L 466.60 270.00 L 465.90 278.00 L 465.90 280.60 L 467.10 287.90 L 470.30 303.00 L 470.70 310.00 L 469.70 317.20 L 466.00 329.40 L 465.60 331.50 L 465.20 331.70 Z" fill="#44d690" fill-rule="nonzero" group-id="2" id="Path" node-id="16" stroke="none" target-height="76.70001" target-width="5.9000244" target-x="464.8" target-y="255"></path><path d="M 464.20 284.70 L 462.60 284.40 L 461.30 283.50 L 459.60 281.40 L 459.80 280.80 L 460.40 281.00 L 461.80 282.80 L 462.80 283.50 L 464.00 283.80 L 465.80 283.50 L 466.10 284.10 L 465.80 284.40 L 464.20 284.70 Z" fill="#44d690" fill-rule="nonzero" group-id="2" id="Path" node-id="17" stroke="none" target-height="3.9000244" target-width="6.5" target-x="459.6" target-y="280.8"></path><path d="M 465.50 277.30 L 465.00 276.90 L 465.10 276.60 L 467.90 275.40 L 469.30 274.40 L 470.50 273.10 L 471.70 271.00 L 472.00 271.00 L 472.30 271.60 L 471.30 273.60 L 470.00 275.10 L 468.40 276.10 L 465.50 277.30 Z" fill="#44d690" fill-rule="nonzero" group-id="2" id="Path" node-id="18" stroke="none" target-height="6.299988" target-width="7.299988" target-x="465" target-y="271"></path><path d="M 470.20 306.90 L 466.80 306.20 L 464.20 304.70 L 463.20 303.40 L 462.40 301.70 L 462.70 301.20 L 463.10 301.20 L 463.90 302.90 L 465.60 304.60 L 467.20 305.40 L 470.50 306.10 L 470.60 306.70 L 470.20 306.90 Z" fill="#44d690" fill-rule="nonzero" group-id="2" id="Path" node-id="19" stroke="none" target-height="5.6999817" target-width="8.200012" target-x="462.4" target-y="301.2"></path><path d="M 469.90 314.30 L 469.40 314.00 L 469.70 313.40 L 474.30 310.70 L 477.50 307.70 L 478.30 306.50 L 479.00 303.90 L 479.50 303.40 L 479.90 303.90 L 479.20 306.80 L 476.80 309.90 L 473.20 312.60 L 469.90 314.30 Z" fill="#44d690" fill-rule="nonzero" group-id="2" id="Path" node-id="20" stroke="none" target-height="10.899994" target-width="10.5" target-x="469.4" target-y="303.4"></path></g><g node-id="125"><path d="M 197.40 82.70 L 195.10 83.00 L 193.00 83.60 L 190.90 84.70 L 188.80 86.20 L 186.40 88.60 L 184.00 91.70 L 181.80 95.60 L 180.00 99.70 L 178.40 104.40 L 177.10 109.60 L 176.20 115.00 L 175.60 120.70 L 175.40 126.80 L 175.40 321.30 L 219.40 321.30 L 219.40 126.80 L 219.10 120.70 L 218.60 115.00 L 217.60 109.60 L 216.30 104.40 L 214.70 99.70 L 212.90 95.60 L 210.70 91.70 L 208.40 88.60 L 205.90 86.20 L 203.80 84.70 L 201.70 83.60 L 199.60 83.00 L 197.40 82.70 Z" fill="#355aa2" fill-rule="nonzero" group-id="3" id="Path" node-id="22" stroke="none" target-height="238.59999" target-width="44" target-x="175.4" target-y="82.7"></path><path d="M 344.00 132.20 L 322.00 132.20 L 322.00 321.30 L 366.00 321.30 L 366.00 132.20 Z" fill="#355aa2" fill-rule="nonzero" group-id="3" id="Path" node-id="23" stroke="none" target-height="189.09999" target-width="44" target-x="322" target-y="132.2"></path><path d="M 175.40 192.80 L 219.40 192.80 L 219.40 200.20 L 175.40 200.20 Z" fill="#224380" fill-rule="nonzero" group-id="3" id="Rectangle" node-id="24" stroke="none" target-height="7.399994" target-width="44" target-x="175.4" target-y="192.8"></path><path d="M 175.40 207.50 L 219.40 207.50 L 219.40 214.90 L 175.40 214.90 Z" fill="#224380" fill-rule="nonzero" group-id="3" id="Rectangle" node-id="25" stroke="none" target-height="7.399994" target-width="44" target-x="175.4" target-y="207.5"></path><path d="M 322.00 192.80 L 366.00 192.80 L 366.00 200.20 L 322.00 200.20 Z" fill="#224380" fill-rule="nonzero" group-id="3" id="Rectangle" node-id="26" stroke="none" target-height="7.399994" target-width="44" target-x="322" target-y="192.8"></path><path d="M 322.00 207.50 L 366.00 207.50 L 366.00 214.90 L 322.00 214.90 Z" fill="#224380" fill-rule="nonzero" group-id="3" id="Rectangle" node-id="27" stroke="none" target-height="7.399994" target-width="44" target-x="322" target-y="207.5"></path><path d="M 270.70 24.00 L 267.00 24.30 L 263.50 25.10 L 260.00 26.50 L 256.60 28.50 L 250.30 33.50 L 247.20 36.60 L 240.60 45.30 L 237.20 50.90 L 233.90 57.00 L 228.40 69.60 L 224.10 82.70 L 221.10 95.30 L 220.10 101.50 L 219.40 112.10 L 219.40 288.30 L 322.00 288.30 L 322.00 112.10 L 321.20 100.70 L 320.10 94.30 L 317.10 81.50 L 312.60 68.30 L 306.90 55.90 L 303.70 49.90 L 300.20 44.50 L 296.60 39.60 L 292.50 35.10 L 288.50 31.30 L 284.30 28.30 L 280.90 26.40 L 277.60 25.10 L 274.10 24.30 L 270.70 24.00 Z" fill="#224380" fill-rule="nonzero" group-id="3" id="Path" node-id="28" stroke="none" target-height="264.3" target-width="102.600006" target-x="219.4" target-y="24"></path><path d="M 314.60 376.40 L 226.70 376.40 L 241.30 339.70 L 300.00 339.70 Z" fill="#dae7ff" fill-rule="nonzero" group-id="3" id="Path" node-id="29" stroke="none" target-height="36.69998" target-width="87.90001" target-x="226.7" target-y="339.7"></path><path d="M 302.90 347.00 L 300.00 339.70 L 241.30 339.70 L 238.40 347.00 Z" fill="#c3d3f3" fill-rule="nonzero" group-id="3" id="Path" node-id="30" stroke="none" target-height="7.299988" target-width="64.5" target-x="238.4" target-y="339.7"></path><path d="M 363.40 290.80 L 357.30 284.30 L 351.60 277.60 L 346.40 270.60 L 341.60 263.40 L 337.20 255.90 L 333.30 248.20 L 330.00 240.20 L 327.20 232.10 L 325.30 225.50 L 323.90 218.70 L 322.80 211.90 L 322.20 204.90 L 322.00 185.50 L 219.40 185.50 L 219.10 204.90 L 218.50 211.90 L 217.40 218.70 L 216.00 225.50 L 214.20 232.10 L 211.40 240.20 L 208.00 248.20 L 204.20 255.90 L 199.80 263.40 L 194.90 270.60 L 189.70 277.60 L 184.00 284.30 L 174.50 294.50 L 171.40 298.40 L 168.70 302.70 L 166.40 307.10 L 164.40 311.80 L 162.80 316.70 L 161.70 321.70 L 161.00 326.90 L 160.70 332.30 L 380.60 332.30 L 380.40 326.90 L 379.70 321.70 L 378.50 316.70 L 376.90 311.80 L 375.00 307.10 L 372.60 302.70 L 369.90 298.40 L 366.80 294.50 L 363.40 290.80 Z" fill="#6bc2fc" fill-rule="nonzero" group-id="3" id="Path" node-id="31" stroke="none" target-height="146.79999" target-width="219.90001" target-x="160.7" target-y="185.5"></path><path d="M 270.70 53.40 L 267.40 53.60 L 264.10 54.40 L 260.90 55.70 L 257.70 57.60 L 254.40 60.10 L 250.90 63.50 L 247.40 67.70 L 243.80 72.80 L 240.40 78.90 L 237.40 84.90 L 231.80 99.10 L 227.10 115.70 L 223.40 133.80 L 222.00 143.70 L 220.60 156.90 L 219.70 170.80 L 219.40 185.50 L 219.40 310.30 L 219.60 314.30 L 220.40 318.10 L 221.70 321.70 L 223.40 325.10 L 225.50 328.20 L 227.90 331.10 L 230.80 333.50 L 233.90 335.60 L 237.30 337.30 L 240.90 338.60 L 244.60 339.40 L 248.70 339.70 L 292.70 339.70 L 296.70 339.40 L 300.50 338.60 L 304.10 337.30 L 307.50 335.60 L 310.60 333.50 L 313.40 331.10 L 315.90 328.20 L 318.00 325.10 L 319.70 321.70 L 320.90 318.10 L 321.70 314.30 L 322.00 310.30 L 322.00 185.50 L 321.70 170.80 L 320.80 156.90 L 319.40 143.70 L 316.20 124.40 L 312.10 107.50 L 309.50 99.10 L 303.90 84.90 L 301.00 78.90 L 297.50 72.80 L 294.00 67.70 L 290.40 63.50 L 286.90 60.10 L 283.60 57.60 L 280.40 55.70 L 277.20 54.40 L 274.00 53.60 L 270.70 53.40 Z" fill="#dceefd" fill-rule="nonzero" group-id="3" id="Path" node-id="32" stroke="none" target-height="286.30002" target-width="102.600006" target-x="219.4" target-y="53.4"></path><path d="M 219.40 185.50 L 219.40 310.30 L 219.60 314.30 L 220.40 318.10 L 221.70 321.70 L 223.40 325.10 L 225.50 328.20 L 227.90 331.10 L 230.80 333.50 L 233.90 335.60 L 237.30 337.30 L 240.90 338.60 L 244.60 339.40 L 248.70 339.70 L 270.70 339.70 L 270.70 53.40 L 267.40 53.60 L 264.10 54.40 L 260.90 55.70 L 257.70 57.60 L 254.40 60.10 L 250.90 63.50 L 247.40 67.70 L 243.80 72.80 L 240.40 78.90 L 234.50 91.60 L 229.30 107.50 L 225.20 124.40 L 223.40 133.80 L 222.00 143.70 L 220.60 156.90 L 219.70 170.80 L 219.40 185.50 Z" fill="#f3f9ff" fill-rule="nonzero" group-id="3" id="Path" node-id="33" stroke="none" target-height="286.30002" target-width="51.30002" target-x="219.4" target-y="53.4"></path><path d="M 321.50 339.70 L 219.50 339.50 L 219.40 288.30 L 322.00 288.30 L 322.00 339.20 L 321.50 339.70 Z" fill="#224380" fill-rule="nonzero" group-id="3" id="Path" node-id="34" stroke="none" target-height="51.400024" target-width="102.600006" target-x="219.4" target-y="288.3"></path><path d="M 270.70 273.60 L 263.30 288.30 L 263.30 347.00 L 270.70 361.70 L 278.00 347.00 L 278.00 288.30 Z" fill="#183168" fill-rule="nonzero" group-id="3" id="Path" node-id="35" stroke="none" target-height="88.100006" target-width="14.700012" target-x="263.3" target-y="273.6"></path><path d="M 226.70 361.70 L 314.60 361.70 L 314.60 376.40 L 226.70 376.40 Z" fill="#aec1e8" fill-rule="nonzero" group-id="3" id="Rectangle" node-id="36" stroke="none" target-height="14.699982" target-width="87.90001" target-x="226.7" target-y="361.7"></path><path d="M 219.40 229.50 L 322.00 229.50 L 322.00 236.90 L 219.40 236.90 Z" fill="#224380" fill-rule="nonzero" group-id="3" id="Rectangle" node-id="37" stroke="none" target-height="7.399994" target-width="102.600006" target-x="219.4" target-y="229.5"></path><path d="M 175.40 126.80 L 219.40 126.80 L 219.40 134.10 L 175.40 134.10 Z" fill="#224380" fill-rule="nonzero" group-id="3" id="Rectangle" node-id="38" stroke="none" target-height="7.300003" target-width="44" target-x="175.4" target-y="126.8"></path><path d="M 322.00 126.80 L 366.00 126.80 L 366.00 134.10 L 322.00 134.10 Z" fill="#224380" fill-rule="nonzero" group-id="3" id="Rectangle" node-id="39" stroke="none" target-height="7.300003" target-width="44" target-x="322" target-y="126.8"></path><path d="M 286.20 115.00 L 284.50 112.00 L 282.50 109.60 L 280.00 107.50 L 277.10 106.00 L 274.00 105.10 L 270.70 104.70 L 267.30 105.10 L 264.20 106.00 L 261.40 107.50 L 258.90 109.60 L 256.80 112.00 L 255.20 115.00 L 241.70 109.20 L 243.60 105.40 L 245.90 102.10 L 248.60 99.10 L 251.70 96.40 L 255.00 94.20 L 258.60 92.40 L 262.50 91.10 L 266.50 90.30 L 270.70 90.10 L 274.90 90.30 L 278.90 91.10 L 282.70 92.40 L 286.30 94.20 L 289.70 96.40 L 292.70 99.10 L 295.40 102.10 L 297.70 105.40 L 299.60 109.20 L 286.20 115.00 Z" fill="#224380" fill-rule="nonzero" group-id="3" id="Path" node-id="40" stroke="none" target-height="24.900002" target-width="57.90001" target-x="241.7" target-y="90.1"></path></g><g node-id="126"><g node-id="131"><path d="M 97.90 307.80 L 98.10 306.00 L 99.50 303.00 L 101.20 301.00 L 106.60 296.10 L 107.50 295.00 L 108.20 292.60 L 107.80 291.20 L 106.80 289.70 L 99.30 283.80 L 97.50 282.00 L 95.20 278.50 L 94.50 275.00 L 94.70 273.10 L 95.90 270.40 L 97.50 268.80 L 99.30 267.50 L 105.30 264.20 L 106.80 262.90 L 108.00 260.80 L 108.20 259.40 L 107.90 256.90 L 107.10 255.00 L 102.40 248.40 L 101.50 245.30 L 101.40 243.10 L 102.20 239.00 L 103.30 236.20 L 108.10 227.50 L 114.50 219.00 L 118.10 215.30 L 121.30 212.60 L 123.60 211.10 L 125.40 210.30 L 127.00 210.00 L 128.50 210.30 L 130.00 211.00 L 131.60 212.40 L 133.80 215.00 L 135.90 218.40 L 139.40 226.20 L 141.80 234.00 L 142.50 237.60 L 142.50 241.50 L 141.30 244.10 L 139.90 245.90 L 132.20 252.20 L 130.80 253.80 L 130.00 254.90 L 129.40 257.30 L 129.60 258.50 L 130.80 260.50 L 132.20 261.70 L 139.90 266.00 L 141.30 267.20 L 142.50 269.20 L 142.70 270.40 L 142.00 272.80 L 139.30 275.80 L 130.00 282.60 L 128.30 284.10 L 126.80 286.10 L 126.60 287.00 L 127.40 289.20 L 134.50 295.60 L 136.40 297.90 L 137.40 299.50 L 138.00 301.40 L 138.20 303.50 L 137.90 306.30 L 137.00 309.70 L 135.70 313.10 L 131.90 320.10 L 127.40 326.00 L 125.30 328.10 L 122.40 329.80 L 121.30 330.00 L 119.50 329.60 L 113.90 326.70 L 107.50 321.80 L 104.50 319.00 L 99.80 313.10 L 98.70 311.10 L 97.90 307.80 Z" fill="#9e95e3" fill-rule="nonzero" group-id="4,9" id="Path" node-id="43" stroke="none" target-height="120" target-width="48.199997" target-x="94.5" target-y="210"></path><path d="M 122.10 337.20 L 121.50 336.70 L 118.40 315.20 L 116.60 293.00 L 116.40 282.40 L 116.70 272.50 L 118.00 257.90 L 119.90 248.00 L 121.50 242.60 L 121.90 242.30 L 122.60 242.60 L 122.60 243.10 L 120.10 252.90 L 118.40 265.40 L 117.60 282.50 L 117.80 293.10 L 118.70 306.20 L 120.90 325.20 L 122.70 336.50 L 122.60 336.90 L 122.10 337.20 Z" fill="#877cd8" fill-rule="nonzero" group-id="4,9" id="Path" node-id="44" stroke="none" target-height="94.90001" target-width="6.2999954" target-x="116.4" target-y="242.3"></path></g><path d="M 70.30 318.70 L 67.20 310.00 L 66.70 307.00 L 66.90 303.00 L 68.50 299.40 L 69.90 297.80 L 74.10 294.60 L 75.90 292.10 L 76.10 289.60 L 72.90 281.50 L 72.50 278.50 L 72.60 276.50 L 73.70 273.30 L 75.20 271.30 L 79.80 266.70 L 80.80 265.40 L 81.10 264.00 L 80.80 254.00 L 81.20 249.90 L 82.60 247.70 L 83.70 246.90 L 86.40 246.10 L 87.90 246.20 L 89.40 246.60 L 90.70 247.50 L 92.10 249.00 L 93.10 250.80 L 93.80 253.30 L 95.30 264.70 L 96.00 268.10 L 97.10 271.20 L 98.60 274.20 L 101.60 279.10 L 102.00 280.60 L 101.80 282.20 L 101.00 284.60 L 96.70 291.50 L 95.60 293.70 L 95.20 295.60 L 95.50 297.30 L 96.10 298.60 L 98.70 302.50 L 99.50 304.50 L 99.90 307.00 L 100.00 310.80 L 99.50 314.40 L 98.70 317.60 L 97.50 320.50 L 95.90 323.20 L 94.10 325.40 L 92.20 327.10 L 90.00 328.40 L 87.80 329.10 L 85.60 329.30 L 83.10 328.90 L 80.20 327.80 L 77.30 326.30 L 72.80 322.50 L 70.30 318.70 Z" fill="#8ae6b9" fill-rule="nonzero" group-id="4" id="Path" node-id="45" stroke="none" target-height="83.19998" target-width="35.300003" target-x="66.7" target-y="246.1"></path><path d="M 93.20 282.00 L 92.50 282.20 L 91.20 284.00 L 90.20 284.70 L 89.00 285.00 L 87.60 284.80 L 88.00 278.10 L 87.30 271.20 L 88.10 257.90 L 88.00 256.60 L 87.80 256.30 L 87.20 256.40 L 86.40 271.20 L 87.00 277.40 L 84.10 276.00 L 82.20 274.00 L 81.30 272.30 L 80.70 272.50 L 81.50 274.60 L 82.60 275.90 L 85.10 277.70 L 87.10 278.40 L 87.00 281.70 L 86.60 285.60 L 82.70 304.30 L 82.30 311.00 L 82.60 314.30 L 77.50 311.10 L 74.80 308.00 L 73.80 304.80 L 73.50 304.70 L 73.10 305.10 L 73.50 307.20 L 74.40 309.10 L 75.80 310.70 L 79.10 313.40 L 82.70 315.40 L 84.20 322.00 L 87.00 330.70 L 87.40 332.80 L 88.00 332.90 L 88.20 332.00 L 84.30 318.50 L 83.20 311.60 L 83.20 308.10 L 85.50 307.70 L 88.40 306.20 L 89.70 304.90 L 90.60 302.60 L 89.90 302.50 L 88.90 304.40 L 86.60 306.30 L 83.30 307.20 L 84.20 300.70 L 87.50 285.70 L 88.80 286.00 L 90.40 285.60 L 91.70 284.80 L 93.40 282.60 L 93.20 282.00 Z" fill="#45d48f" fill-rule="nonzero" group-id="4" id="Path" node-id="46" stroke="none" target-height="76.600006" target-width="20.300003" target-x="73.1" target-y="256.3"></path></g><g node-id="127"><path d="M 417.70 103.80 L 413.90 103.70 L 413.50 103.20 L 414.00 102.80 L 418.40 102.90 L 418.80 103.00 L 418.80 103.70 L 417.70 103.80 Z M 422.90 103.60 L 422.50 103.20 L 422.90 102.70 L 427.30 102.30 L 427.80 102.70 L 427.50 103.20 L 422.90 103.60 Z M 409.50 103.40 L 404.90 102.90 L 404.60 102.70 L 404.70 102.10 L 409.50 102.50 L 409.90 103.00 L 409.50 103.40 Z M 431.80 102.50 L 431.40 102.10 L 431.80 101.60 L 436.10 100.60 L 436.70 100.90 L 436.30 101.50 L 431.80 102.50 Z M 400.50 102.20 L 396.00 101.30 L 395.70 100.80 L 395.90 100.50 L 400.60 101.30 L 401.00 101.80 L 400.50 102.20 Z M 391.70 100.30 L 389.30 99.70 L 389.00 99.20 L 389.20 98.90 L 391.90 99.50 L 392.20 100.00 L 391.70 100.30 Z M 440.50 100.10 L 440.10 99.80 L 440.40 99.30 L 444.50 97.60 L 445.10 97.80 L 444.90 98.40 L 440.50 100.10 Z M 448.70 96.40 L 448.30 96.20 L 448.40 95.50 L 452.20 93.10 L 452.80 93.20 L 452.70 93.80 L 448.70 96.40 Z M 455.90 91.10 L 455.50 90.60 L 453.70 90.20 L 453.80 89.60 L 456.20 89.80 L 459.00 86.90 L 459.30 87.00 L 459.30 87.60 L 457.40 89.80 L 458.90 90.00 L 458.80 90.60 L 456.50 90.70 L 455.90 91.10 Z M 463.00 90.50 L 462.60 90.10 L 463.00 89.60 L 467.40 88.80 L 467.90 89.20 L 467.50 89.70 L 463.00 90.50 Z M 449.80 89.10 L 447.50 88.00 L 445.70 86.60 L 445.60 86.00 L 446.30 86.00 L 449.90 88.30 L 450.20 88.80 L 449.80 89.10 Z M 471.80 88.60 L 471.40 88.30 L 471.70 87.70 L 476.00 86.40 L 476.50 86.70 L 476.20 87.30 L 471.80 88.60 Z M 480.40 85.90 L 480.00 85.60 L 480.30 85.10 L 484.50 83.70 L 485.10 84.00 L 484.80 84.50 L 480.40 85.90 Z M 461.60 84.10 L 461.20 83.80 L 461.20 83.40 L 463.30 79.20 L 463.90 79.40 L 463.90 79.70 L 462.00 83.90 L 461.60 84.10 Z M 443.20 83.20 L 442.80 83.00 L 441.90 80.80 L 441.50 78.50 L 441.90 78.10 L 442.40 78.50 L 442.80 80.60 L 443.60 82.60 L 443.60 82.90 L 443.20 83.20 Z M 489.00 83.10 L 488.50 82.80 L 488.80 82.20 L 493.10 80.80 L 493.60 81.10 L 493.40 81.60 L 489.00 83.10 Z M 497.50 80.20 L 497.00 79.90 L 497.30 79.30 L 501.50 77.80 L 502.10 78.00 L 501.80 78.60 L 497.50 80.20 Z M 505.90 77.10 L 505.50 76.80 L 505.70 76.20 L 509.90 74.60 L 510.50 74.80 L 510.30 75.40 L 505.90 77.10 Z M 464.30 75.60 L 463.90 75.20 L 463.70 72.70 L 463.20 71.00 L 463.50 70.40 L 464.10 70.60 L 464.60 72.50 L 464.80 75.20 L 464.30 75.60 Z M 442.40 74.50 L 441.90 73.90 L 442.80 71.70 L 444.40 69.60 L 444.70 69.70 L 444.80 70.40 L 443.60 72.20 L 442.80 74.20 L 442.40 74.50 Z M 514.30 73.80 L 513.90 73.50 L 514.10 72.90 L 518.30 71.20 L 518.90 71.50 L 518.60 72.10 L 514.30 73.80 Z M 460.90 67.80 L 458.80 66.80 L 456.60 66.30 L 456.20 65.80 L 456.40 65.50 L 459.10 66.00 L 461.10 67.00 L 461.20 67.60 L 460.90 67.80 Z M 447.90 67.70 L 447.50 67.50 L 447.70 66.90 L 451.10 65.70 L 452.50 65.60 L 452.50 66.20 L 447.90 67.70 Z" fill="#dae7ff" fill-rule="nonzero" group-id="5" id="Shape" node-id="48" stroke="none" target-height="38.300003" target-width="129.90002" target-x="389" target-y="65.5"></path><g node-id="132"><path d="M 503.00 53.90 L 516.30 60.60 L 556.10 42.80 Z" fill="#ffe994" fill-rule="nonzero" group-id="5,10" id="Path" node-id="50" stroke="none" target-height="17.8" target-width="53.099976" target-x="503" target-y="42.8"></path><path d="M 518.50 71.70 L 516.30 60.60 L 556.10 42.80 Z" fill="#ffe270" fill-rule="nonzero" group-id="5,10" id="Path" node-id="51" stroke="none" target-height="28.899998" target-width="39.799988" target-x="516.3" target-y="42.8"></path><path d="M 518.50 71.70 L 522.90 62.80 L 534.00 60.60 Z" fill="#ffd94a" fill-rule="nonzero" group-id="5,10" id="Path" node-id="52" stroke="none" target-height="11.099998" target-width="15.5" target-x="518.5" target-y="60.6"></path><path d="M 522.90 62.80 L 534.00 67.20 L 556.10 42.80 Z" fill="#ffe994" fill-rule="nonzero" group-id="5,10" id="Path" node-id="53" stroke="none" target-height="24.399998" target-width="33.19995" target-x="522.9" target-y="42.8"></path></g></g><g node-id="128"><path d="M 379.40 89.80 L 376.80 83.40 L 377.70 75.50 L 377.50 75.20 L 377.00 75.40 L 376.50 76.30 L 375.50 79.90 L 372.90 73.00 L 371.90 71.60 L 371.30 71.80 L 370.40 72.80 L 368.70 76.10 L 368.10 79.40 L 368.50 80.80 L 369.30 82.50 L 373.90 89.90 L 375.50 93.70 L 379.40 89.80 Z" fill="#f1b282" fill-rule="nonzero" group-id="6" id="Path" node-id="55" stroke="none" target-height="22.099998" target-width="11.299988" target-x="368.1" target-y="71.6"></path><path d="M 378.00 85.80 L 385.70 101.70 L 390.60 110.30 L 395.80 118.30 L 398.50 121.70 L 401.00 124.10 L 388.70 126.30 L 380.30 109.00 L 376.20 98.80 L 372.70 88.50 L 378.00 85.80 Z" fill="#1277d7" fill-rule="nonzero" group-id="6" id="Path" node-id="56" stroke="none" target-height="40.5" target-width="28.299988" target-x="372.7" target-y="85.8"></path><path d="M 369.80 68.60 L 367.00 67.80 L 364.10 67.50 L 361.10 67.90 L 355.10 69.90 L 352.00 71.60 L 347.50 74.60 L 343.10 78.10 L 339.00 82.10 L 335.30 86.20 L 329.20 94.20 L 365.90 118.50 L 369.10 113.30 L 371.80 108.10 L 374.00 102.90 L 375.80 97.60 L 377.10 92.60 L 377.80 88.00 L 377.90 81.20 L 376.60 75.80 L 375.50 73.40 L 374.00 71.40 L 372.10 69.80 L 369.80 68.60 Z" fill="#355aa2" fill-rule="nonzero" group-id="6" id="Path" node-id="57" stroke="none" target-height="51" target-width="48.69998" target-x="329.2" target-y="67.5"></path><path d="M 395.20 246.10 L 389.00 247.90 L 387.70 248.60 L 387.40 249.10 L 387.50 249.70 L 388.00 250.30 L 389.60 251.00 L 391.60 251.30 L 398.50 251.10 L 400.50 250.70 L 401.90 250.10 L 402.50 249.30 L 402.30 246.90 L 401.80 246.00 L 400.00 245.30 L 395.20 246.10 Z" fill="#102b5e" fill-rule="nonzero" group-id="6" id="Path" node-id="58" stroke="none" target-height="6" target-width="15.100006" target-x="387.4" target-y="245.3"></path><g node-id="133"><path d="M 344.80 376.50 L 346.60 376.40 L 347.70 375.20 L 389.20 257.60 L 389.30 256.80 L 388.60 255.20 L 386.90 254.70 L 385.40 255.40 L 384.90 256.20 L 343.50 373.70 L 343.60 375.40 L 344.80 376.50 Z" fill="#c3d3f3" fill-rule="nonzero" group-id="6,11" id="Path" node-id="60" stroke="none" target-height="121.8" target-width="45.799988" target-x="343.5" target-y="254.7"></path><path d="M 375.50 376.50 L 377.30 376.40 L 378.40 375.20 L 419.90 257.60 L 419.80 255.90 L 418.50 254.80 L 416.80 254.90 L 415.60 256.20 L 374.20 373.70 L 374.30 375.40 L 375.50 376.50 Z" fill="#c3d3f3" fill-rule="nonzero" group-id="6,11" id="Path" node-id="61" stroke="none" target-height="121.7" target-width="45.69998" target-x="374.2" target-y="254.8"></path><g node-id="136"><path d="M 414.50 270.40 L 381.90 270.40 L 381.90 266.30 L 414.50 266.30 Z" fill="#c3d3f3" fill-rule="nonzero" group-id="6,11,14" id="Rectangle" node-id="62" stroke="none" target-height="4.100006" target-width="32.600006" target-x="381.9" target-y="266.3"></path></g><g node-id="137"><path d="M 406.00 294.90 L 373.40 294.90 L 373.40 290.90 L 406.00 290.90 Z" fill="#c3d3f3" fill-rule="nonzero" group-id="6,11,15" id="Rectangle" node-id="63" stroke="none" target-height="4" target-width="32.600006" target-x="373.4" target-y="290.9"></path></g><g node-id="138"><path d="M 397.40 319.50 L 364.80 319.50 L 364.80 315.40 L 397.40 315.40 Z" fill="#c3d3f3" fill-rule="nonzero" group-id="6,11,16" id="Rectangle" node-id="64" stroke="none" target-height="4.100006" target-width="32.600006" target-x="364.8" target-y="315.4"></path></g><g node-id="139"><path d="M 388.90 344.00 L 356.30 344.00 L 356.30 339.90 L 388.90 339.90 Z" fill="#c3d3f3" fill-rule="nonzero" group-id="6,11,17" id="Rectangle" node-id="65" stroke="none" target-height="4.100006" target-width="32.600006" target-x="356.3" target-y="339.9"></path></g><path d="M 380.40 368.50 L 347.70 368.50 L 347.70 364.50 L 380.40 364.50 Z" fill="#c3d3f3" fill-rule="nonzero" group-id="6,11,18" id="Rectangle" node-id="66" stroke="none" target-height="4" target-width="32.69998" target-x="347.7" target-y="364.5"></path></g><g node-id="134"><path d="M 478.30 376.50 L 476.60 376.40 L 475.50 375.20 L 434.00 257.60 L 434.10 255.90 L 435.40 254.80 L 437.10 254.90 L 438.30 256.20 L 479.70 373.70 L 479.60 375.40 L 478.30 376.50 Z" fill="#dae7ff" fill-rule="nonzero" group-id="6,12" id="Path" node-id="68" stroke="none" target-height="121.7" target-width="45.700012" target-x="434" target-y="254.8"></path><path d="M 447.60 376.50 L 445.90 376.40 L 444.80 375.20 L 403.30 257.60 L 403.40 255.90 L 404.70 254.80 L 406.40 254.90 L 407.50 256.20 L 449.00 373.70 L 448.90 375.40 L 447.60 376.50 Z" fill="#dae7ff" fill-rule="nonzero" group-id="6,12" id="Path" node-id="69" stroke="none" target-height="121.7" target-width="45.700012" target-x="403.3" target-y="254.8"></path><path d="M 408.70 266.30 L 441.30 266.30 L 441.30 270.40 L 408.70 270.40 Z" fill="#dae7ff" fill-rule="nonzero" group-id="6,12" id="Rectangle" node-id="70" stroke="none" target-height="4.100006" target-width="32.599976" target-x="408.7" target-y="266.3"></path><path d="M 417.20 290.90 L 449.80 290.90 L 449.80 294.90 L 417.20 294.90 Z" fill="#dae7ff" fill-rule="nonzero" group-id="6,12" id="Rectangle" node-id="71" stroke="none" target-height="4" target-width="32.599976" target-x="417.2" target-y="290.9"></path><path d="M 425.70 315.40 L 458.30 315.40 L 458.30 319.50 L 425.70 319.50 Z" fill="#dae7ff" fill-rule="nonzero" group-id="6,12" id="Rectangle" node-id="72" stroke="none" target-height="4.100006" target-width="32.599976" target-x="425.7" target-y="315.4"></path><path d="M 434.30 339.90 L 466.90 339.90 L 466.90 344.00 L 434.30 344.00 Z" fill="#dae7ff" fill-rule="nonzero" group-id="6,12" id="Rectangle" node-id="73" stroke="none" target-height="4.100006" target-width="32.600006" target-x="434.3" target-y="339.9"></path><path d="M 442.80 364.50 L 475.40 364.50 L 475.40 368.50 L 442.80 368.50 Z" fill="#dae7ff" fill-rule="nonzero" group-id="6,12" id="Rectangle" node-id="74" stroke="none" target-height="4" target-width="32.600006" target-x="442.8" target-y="364.5"></path></g><path d="M 440.70 258.00 L 383.90 258.00 L 382.40 257.70 L 381.30 256.90 L 380.50 255.80 L 380.20 254.30 L 380.50 252.80 L 381.30 251.70 L 382.40 250.90 L 383.90 250.60 L 440.70 250.60 L 442.20 250.90 L 443.40 251.70 L 444.20 252.80 L 444.50 254.30 L 444.20 255.80 L 443.40 256.90 L 442.20 257.70 L 440.70 258.00 Z" fill="#aec1e8" fill-rule="nonzero" group-id="6" id="Path" node-id="75" stroke="none" target-height="7.399994" target-width="64.29999" target-x="380.2" target-y="250.6"></path><g node-id="135"><path d="M 399.90 93.10 L 398.60 93.40 L 397.10 95.10 L 395.90 99.50 L 393.90 102.30 L 393.10 104.20 L 393.10 104.80 L 394.10 105.90 L 394.00 110.40 L 394.50 111.40 L 395.30 112.20 L 399.10 114.10 L 399.40 114.70 L 399.10 117.10 L 397.10 125.30 L 408.20 125.10 L 407.80 113.30 L 408.00 109.10 L 409.30 100.10 L 409.30 97.80 L 408.90 96.40 L 408.20 95.20 L 407.00 94.30 L 405.50 93.70 L 403.30 93.20 L 399.90 93.10 Z" fill="#f1b282" fill-rule="nonzero" group-id="6,13" id="Path" node-id="77" stroke="none" target-height="32.200005" target-width="16.199982" target-x="393.1" target-y="93.1"></path><path d="M 420.90 88.50 L 419.00 93.40 L 418.30 96.60 L 418.00 97.30 L 417.40 97.50 L 415.60 97.20 L 413.10 95.90 L 413.70 93.60 L 415.40 90.80 L 416.80 89.60 L 419.20 88.60 L 420.90 88.50 Z" fill="#03193f" fill-rule="nonzero" group-id="6,13" id="Path" node-id="78" stroke="none" target-height="9" target-width="7.799988" target-x="413.1" target-y="88.5"></path><path d="M 408.10 114.80 L 407.80 114.90 L 407.40 114.50 L 405.90 109.80 L 403.00 108.00 L 402.10 107.40 L 401.90 106.80 L 404.20 104.70 L 404.50 104.20 L 404.40 103.80 L 399.50 100.10 L 397.90 97.30 L 397.80 94.20 L 398.20 92.90 L 399.00 91.90 L 400.20 91.00 L 402.30 90.20 L 404.90 89.80 L 407.70 89.90 L 412.00 91.20 L 414.70 93.40 L 415.60 94.80 L 416.20 96.40 L 416.30 98.40 L 416.00 101.80 L 414.70 106.60 L 413.20 109.50 L 411.60 111.50 L 408.10 114.80 Z" fill="#0b224e" fill-rule="nonzero" group-id="6,13" id="Path" node-id="79" stroke="none" target-height="25.099998" target-width="18.5" target-x="397.8" target-y="89.8"></path><path d="M 429.50 101.10 L 429.10 102.80 L 427.50 105.60 L 425.80 107.20 L 423.80 108.20 L 421.70 108.60 L 419.60 108.40 L 418.40 107.90 L 416.30 105.80 L 415.30 102.50 L 415.20 100.00 L 415.60 97.50 L 417.10 94.20 L 419.60 92.20 L 422.40 91.60 L 425.20 92.30 L 427.60 94.20 L 429.20 97.10 L 429.50 101.10 Z" fill="#0b224e" fill-rule="nonzero" group-id="6,13" id="Path" node-id="80" stroke="none" target-height="17" target-width="14.299988" target-x="415.2" target-y="91.6"></path></g><path d="M 364.00 102.00 L 360.10 96.40 L 358.40 88.60 L 358.10 88.40 L 357.70 88.70 L 357.40 89.70 L 357.20 93.40 L 353.10 87.30 L 352.30 86.40 L 351.80 86.10 L 351.40 86.30 L 349.80 89.90 L 349.20 93.10 L 349.40 95.70 L 350.10 96.90 L 351.30 98.10 L 356.20 101.70 L 360.60 106.50 L 364.00 102.00 Z" fill="#f1b282" fill-rule="nonzero" group-id="6" id="Path" node-id="81" stroke="none" target-height="20.400002" target-width="14.799988" target-x="349.2" target-y="86.1"></path><path d="M 454.60 221.60 L 458.80 225.60 L 454.90 230.50 L 449.80 226.00 Z" fill="#f1b282" fill-rule="nonzero" group-id="6" id="Path" node-id="82" stroke="none" target-height="8.899994" target-width="9" target-x="449.8" target-y="221.6"></path><path d="M 455.20 221.80 L 435.80 203.60 L 428.00 197.20 L 413.00 161.30 L 409.50 160.10 L 404.70 159.50 L 402.60 159.80 L 401.00 160.40 L 399.90 161.20 L 398.20 163.60 L 397.40 167.40 L 397.70 172.10 L 398.80 176.70 L 403.80 185.30 L 412.50 198.80 L 418.20 206.90 L 419.50 208.10 L 429.90 214.90 L 450.70 227.30 L 451.70 227.20 L 455.20 222.80 L 455.20 221.80 Z" fill="#0b224e" fill-rule="nonzero" group-id="6" id="Path" node-id="83" stroke="none" target-height="67.8" target-width="57.80002" target-x="397.4" target-y="159.5"></path><path d="M 400.40 236.20 L 407.10 236.20 L 407.10 243.60 L 400.40 243.60 Z" fill="#f1b282" fill-rule="nonzero" group-id="6" id="Rectangle" node-id="84" stroke="none" target-height="7.400009" target-width="6.700012" target-x="400.4" target-y="236.2"></path><path d="M 416.20 159.40 L 414.40 158.20 L 412.60 157.50 L 410.60 157.10 L 406.60 157.20 L 404.60 157.80 L 401.80 159.00 L 399.40 160.50 L 397.50 162.50 L 396.20 164.50 L 395.70 166.50 L 395.30 169.90 L 395.00 178.20 L 395.50 199.70 L 396.60 211.90 L 400.10 240.30 L 407.50 240.30 L 408.80 222.90 L 409.10 212.90 L 408.90 203.10 L 414.20 190.30 L 416.60 183.50 L 417.90 178.00 L 418.10 174.80 L 417.80 168.30 L 416.20 159.40 Z" fill="#102b5e" fill-rule="nonzero" group-id="6" id="Path" node-id="85" stroke="none" target-height="83.2" target-width="23.100006" target-x="395" target-y="157.1"></path><path d="M 412.40 144.30 L 412.40 134.70 L 411.90 128.30 L 410.80 122.60 L 409.90 120.30 L 408.80 118.90 L 406.60 118.00 L 405.00 117.90 L 394.00 119.80 L 391.20 120.00 L 388.80 119.80 L 386.80 119.00 L 380.70 114.90 L 370.30 106.40 L 363.00 99.80 L 358.10 104.30 L 361.80 108.90 L 370.20 117.20 L 379.00 124.30 L 390.20 131.90 L 387.80 135.30 L 387.00 137.10 L 386.80 138.50 L 387.20 139.80 L 388.00 140.90 L 391.30 144.30 L 393.10 147.00 L 393.40 148.70 L 393.30 150.70 L 391.90 162.10 L 392.20 166.20 L 393.30 168.20 L 394.60 169.00 L 397.00 169.80 L 399.70 170.30 L 406.50 170.90 L 413.30 170.70 L 416.20 170.30 L 418.70 169.60 L 420.20 168.80 L 421.00 167.10 L 420.30 163.90 L 413.60 150.10 L 412.70 147.10 L 412.40 144.30 Z" fill="#1b90fb" fill-rule="nonzero" group-id="6" id="Path" node-id="86" stroke="none" target-height="71.09999" target-width="62.899994" target-x="358.1" target-y="99.8"></path><path d="M 409.50 152.20 L 410.70 154.70 L 414.10 158.90 L 420.10 163.40 L 415.40 154.30 L 413.10 148.60 L 412.40 144.30 L 412.40 137.30 L 410.60 140.60 L 409.10 146.00 L 409.00 150.10 L 409.50 152.20 Z" fill="#1277d7" fill-rule="nonzero" group-id="6" id="Path" node-id="87" stroke="none" target-height="26.09999" target-width="11.100006" target-x="409" target-y="137.3"></path><path d="M 407.30 242.80 L 408.20 243.60 L 408.50 244.60 L 408.40 249.50 L 407.60 250.40 L 404.10 250.70 L 389.90 250.50 L 389.20 250.10 L 389.10 249.30 L 389.30 248.30 L 390.90 246.60 L 395.00 245.30 L 399.50 242.70 L 400.10 242.50 L 402.40 243.40 L 403.60 243.60 L 407.30 242.80 Z" fill="#0b224e" fill-rule="nonzero" group-id="6" id="Path" node-id="88" stroke="none" target-height="8.199997" target-width="19.399994" target-x="389.1" target-y="242.5"></path><path d="M 456.90 224.10 L 458.10 223.90 L 459.00 224.40 L 462.60 227.60 L 462.90 228.80 L 460.80 231.70 L 451.30 242.30 L 450.60 242.50 L 449.80 242.10 L 449.30 241.30 L 449.00 239.00 L 450.70 235.00 L 451.70 230.00 L 452.00 229.40 L 454.20 228.20 L 455.10 227.40 L 456.90 224.10 Z" fill="#0b224e" fill-rule="nonzero" group-id="6" id="Path" node-id="89" stroke="none" target-height="18.600006" target-width="13.899994" target-x="449" target-y="223.9"></path></g><g node-id="129"><path d="M 529.00 205.20 L 526.00 205.60 L 523.80 207.20 L 523.20 208.20 L 522.80 212.20 L 521.40 215.30 L 521.60 215.70 L 522.90 216.70 L 522.60 220.30 L 522.70 221.10 L 527.10 221.70 L 528.20 222.10 L 528.60 222.80 L 529.20 230.80 L 539.70 229.80 L 540.10 211.20 L 539.70 208.50 L 538.60 207.50 L 534.70 206.10 L 529.00 205.20 Z" fill="#f1b282" fill-rule="nonzero" group-id="7" id="Path" node-id="91" stroke="none" target-height="25.600006" target-width="18.699951" target-x="521.4" target-y="205.2"></path><path d="M 548.00 360.50 L 548.80 367.20 L 548.30 370.50 L 547.70 371.40 L 543.10 371.60 L 542.50 371.50 L 542.20 370.20 L 540.30 371.60 L 538.70 372.10 L 529.00 372.80 L 527.70 372.10 L 527.50 371.30 L 528.10 369.90 L 536.20 365.60 L 538.00 363.80 L 540.00 361.00 L 548.00 360.50 Z" fill="#0b224e" fill-rule="evenodd" group-id="7" id="Path" node-id="92" stroke="none" target-height="12.299988" target-width="21.299988" target-x="527.5" target-y="360.5"></path><path d="M 525.60 365.00 L 526.00 371.60 L 525.40 374.90 L 524.80 375.80 L 520.10 375.80 L 519.60 375.60 L 519.30 374.40 L 517.40 375.70 L 515.70 376.10 L 503.90 376.30 L 502.70 375.60 L 502.50 374.80 L 502.80 374.00 L 505.20 372.60 L 510.60 370.90 L 513.50 369.50 L 515.40 367.80 L 517.60 365.10 L 525.60 365.00 Z" fill="#0b224e" fill-rule="evenodd" group-id="7" id="Path" node-id="93" stroke="none" target-height="11.299988" target-width="23.5" target-x="502.5" target-y="365"></path><path d="M 533.60 278.50 L 519.00 278.60 L 507.90 277.40 L 501.90 276.20 L 495.90 274.50 L 490.20 272.30 L 486.50 270.50 L 479.90 265.90 L 478.40 263.60 L 478.20 262.20 L 478.20 220.70 L 478.50 219.80 L 479.20 219.20 L 480.00 219.00 L 487.80 224.10 L 491.50 225.90 L 497.30 228.10 L 503.20 229.60 L 509.10 230.70 L 519.80 231.70 L 524.20 231.70 L 533.60 231.20 L 533.60 278.50 Z" fill="#224380" fill-rule="nonzero" group-id="7" id="Path" node-id="94" stroke="none" target-height="59.600006" target-width="55.399963" target-x="478.2" target-y="219"></path><path d="M 491.90 248.10 L 488.40 247.20 L 485.90 246.00 L 481.10 242.70 L 480.40 242.60 L 480.00 242.80 L 479.70 244.00 L 480.40 245.70 L 479.00 245.30 L 477.20 245.60 L 476.40 246.50 L 475.90 247.80 L 476.20 250.80 L 476.90 252.00 L 477.70 252.80 L 480.10 253.20 L 484.20 252.80 L 486.40 253.20 L 491.60 254.70 L 503.50 258.60 L 507.30 249.70 L 491.90 248.10 Z" fill="#f1b282" fill-rule="nonzero" group-id="7" id="Path" node-id="95" stroke="none" target-height="16" target-width="31.399994" target-x="475.9" target-y="242.6"></path><path d="M 551.50 284.40 L 547.20 320.20 L 549.50 360.90 L 549.30 361.50 L 548.80 361.80 L 537.60 363.20 L 536.40 362.70 L 533.50 347.60 L 530.40 327.60 L 529.90 320.30 L 530.60 302.70 L 531.60 292.80 L 532.40 288.20 L 534.20 282.60 L 535.90 280.70 L 537.90 279.80 L 543.10 278.60 L 545.60 278.50 L 547.20 278.70 L 549.80 280.00 L 550.70 281.00 L 551.30 282.50 L 551.50 284.40 Z" fill="#0b224e" fill-rule="nonzero" group-id="7" id="Path" node-id="96" stroke="none" target-height="84.70001" target-width="21.599976" target-x="529.9" target-y="278.5"></path><path d="M 545.70 283.00 L 543.40 291.20 L 539.80 301.90 L 535.60 312.80 L 531.90 321.80 L 529.50 326.80 L 527.50 365.70 L 526.40 366.40 L 515.40 366.60 L 514.50 366.20 L 514.10 365.40 L 514.10 323.00 L 517.80 302.80 L 520.10 292.60 L 522.70 284.20 L 523.70 281.90 L 525.40 279.70 L 527.10 278.80 L 532.20 277.80 L 537.90 277.90 L 542.80 279.20 L 544.50 280.20 L 545.30 281.10 L 545.70 283.00 Z" fill="#102b5e" fill-rule="nonzero" group-id="7" id="Path" node-id="97" stroke="none" target-height="88.80002" target-width="31.600037" target-x="514.1" target-y="277.8"></path><path d="M 545.90 230.90 L 544.20 230.00 L 543.00 229.80 L 541.90 230.10 L 540.20 231.90 L 538.80 235.90 L 538.30 241.70 L 538.40 244.30 L 539.30 248.30 L 540.50 250.10 L 542.40 252.00 L 546.80 255.50 L 531.40 267.80 L 533.80 277.20 L 546.70 270.30 L 553.00 266.40 L 557.80 262.50 L 559.60 260.10 L 559.80 259.20 L 559.60 256.80 L 558.80 253.10 L 555.90 244.90 L 553.80 240.70 L 551.40 236.80 L 549.60 234.40 L 545.90 230.90 Z" fill="#1eaf69" fill-rule="nonzero" group-id="7" id="Path" node-id="98" stroke="none" target-height="47.40001" target-width="28.399963" target-x="531.4" target-y="229.8"></path><path d="M 550.20 262.20 L 550.20 257.20 L 551.30 243.90 L 551.10 241.10 L 550.60 238.20 L 549.40 234.80 L 548.30 232.90 L 546.80 231.10 L 543.30 228.60 L 541.70 227.90 L 540.50 227.70 L 531.00 228.90 L 528.10 229.60 L 525.50 231.30 L 523.80 233.20 L 517.00 243.00 L 513.50 246.90 L 511.90 247.90 L 510.00 248.50 L 507.50 248.70 L 502.00 248.50 L 501.30 258.90 L 508.80 260.20 L 513.90 260.20 L 516.60 259.40 L 519.50 258.00 L 525.00 254.40 L 525.20 258.00 L 525.00 261.90 L 521.40 279.40 L 521.40 281.40 L 522.20 283.30 L 524.50 284.10 L 533.60 282.90 L 538.30 282.80 L 548.10 285.90 L 549.80 286.00 L 551.60 285.50 L 552.50 284.90 L 553.40 282.90 L 553.40 281.00 L 550.70 267.20 L 550.20 262.20 Z" fill="#2ccd7f" fill-rule="nonzero" group-id="7" id="Path" node-id="99" stroke="none" target-height="58.300003" target-width="52.100037" target-x="501.3" target-y="227.7"></path><path d="M 521.10 221.10 L 521.70 223.20 L 523.70 224.70 L 527.00 225.30 L 530.00 224.60 L 530.90 224.10 L 531.60 223.00 L 532.70 216.80 L 533.10 216.00 L 533.80 215.70 L 534.70 215.80 L 535.80 216.90 L 536.90 223.00 L 538.00 224.00 L 539.10 224.00 L 540.90 222.90 L 541.90 221.50 L 543.10 219.10 L 544.00 216.00 L 544.40 212.80 L 544.20 209.50 L 543.70 207.40 L 542.80 205.50 L 541.50 203.80 L 539.90 202.50 L 537.70 201.50 L 534.70 200.90 L 530.30 200.70 L 524.80 201.30 L 522.60 202.20 L 521.40 203.10 L 520.80 204.20 L 520.60 205.40 L 521.00 206.60 L 521.90 207.90 L 523.20 208.90 L 529.40 211.80 L 530.20 213.60 L 530.10 214.90 L 528.90 216.90 L 528.00 217.40 L 524.20 217.20 L 523.00 217.50 L 522.00 218.30 L 521.30 219.40 L 521.10 221.10 Z" fill="#0b224e" fill-rule="nonzero" group-id="7" id="Path" node-id="100" stroke="none" target-height="24.600006" target-width="23.800049" target-x="520.6" target-y="200.7"></path><path d="M 501.00 248.10 L 502.00 247.80 L 503.40 247.90 L 504.20 248.50 L 502.90 257.70 L 502.20 259.50 L 501.50 259.90 L 499.70 259.60 L 499.40 258.90 L 500.00 253.20 L 501.00 248.10 Z" fill="#1eaf69" fill-rule="nonzero" group-id="7" id="Path" node-id="101" stroke="none" target-height="12.099991" target-width="4.8000183" target-x="499.4" target-y="247.8"></path><path d="M 524.30 266.10 L 525.10 260.10 L 525.00 254.40 L 531.40 247.80 L 531.50 251.50 L 530.40 257.00 L 527.90 262.10 L 524.30 266.10 Z" fill="#1eaf69" fill-rule="nonzero" group-id="7" id="Path" node-id="102" stroke="none" target-height="18.300003" target-width="7.200012" target-x="524.3" target-y="247.8"></path></g><g node-id="130"><path d="M 201.40 206.80 L 202.00 208.60 L 202.20 211.60 L 203.60 215.60 L 202.40 218.00 L 202.30 221.20 L 202.00 222.20 L 201.40 222.80 L 199.00 223.70 L 198.50 224.00 L 198.40 224.50 L 200.40 230.60 L 188.10 230.80 L 188.20 222.60 L 187.00 213.00 L 187.30 208.70 L 187.80 207.10 L 188.50 206.30 L 189.60 205.90 L 195.40 205.10 L 199.20 205.50 L 200.60 206.10 L 201.40 206.80 Z" fill="#f1b282" fill-rule="nonzero" group-id="8" id="Path" node-id="104" stroke="none" target-height="25.699997" target-width="16.600006" target-x="187" target-y="205.1"></path><path d="M 194.60 201.40 L 188.50 202.00 L 184.50 203.50 L 183.10 204.60 L 182.10 206.00 L 181.00 209.70 L 181.10 214.80 L 181.70 217.40 L 182.70 219.90 L 183.90 221.80 L 184.90 222.90 L 187.00 223.70 L 193.30 223.10 L 195.30 222.00 L 196.00 220.30 L 196.50 213.70 L 197.00 212.80 L 200.80 210.50 L 201.70 209.70 L 202.40 208.40 L 202.70 206.80 L 202.70 204.20 L 202.30 201.70 L 201.70 200.50 L 200.80 199.90 L 199.70 199.90 L 194.60 201.40 Z" fill="#0b224e" fill-rule="nonzero" group-id="8" id="Path" node-id="105" stroke="none" target-height="23.800003" target-width="21.699997" target-x="181" target-y="199.9"></path><path d="M 205.70 366.70 L 205.70 371.30 L 212.60 371.30 L 212.60 364.80 Z" fill="#f1b282" fill-rule="nonzero" group-id="8" id="Path" node-id="106" stroke="none" target-height="6.5" target-width="6.900009" target-x="205.7" target-y="364.8"></path><path d="M 182.00 366.90 L 182.00 372.30 L 175.00 372.30 L 175.00 365.70 Z" fill="#f1b282" fill-rule="nonzero" group-id="8" id="Path" node-id="107" stroke="none" target-height="6.5999756" target-width="7" target-x="175" target-y="365.7"></path><path d="M 177.90 283.80 L 175.40 320.70 L 175.00 365.70 L 182.30 365.70 L 185.60 347.50 L 186.80 337.60 L 187.20 328.50 L 195.50 297.90 L 197.20 290.00 L 197.90 284.90 L 197.70 283.70 L 197.20 282.80 L 196.20 282.00 L 194.40 281.20 L 191.90 280.80 L 189.20 280.70 L 183.60 281.40 L 179.20 282.90 L 177.90 283.80 Z" fill="#0b224e" fill-rule="nonzero" group-id="8" id="Path" node-id="108" stroke="none" target-height="85" target-width="22.899994" target-x="175" target-y="280.7"></path><path d="M 210.50 283.80 L 213.90 321.10 L 213.80 336.40 L 212.80 365.70 L 205.30 366.20 L 203.30 354.10 L 201.90 341.90 L 201.10 328.40 L 191.80 297.50 L 189.80 289.60 L 188.90 284.50 L 189.20 283.30 L 189.80 282.40 L 190.80 281.60 L 192.80 280.90 L 195.50 280.50 L 198.40 280.50 L 204.40 281.30 L 209.20 282.90 L 210.50 283.80 Z" fill="#102b5e" fill-rule="nonzero" group-id="8" id="Path" node-id="109" stroke="none" target-height="85.70001" target-width="25" target-x="188.9" target-y="280.5"></path><path d="M 176.00 248.90 L 173.30 253.20 L 172.40 255.20 L 171.30 259.50 L 171.40 261.70 L 173.30 266.80 L 176.30 272.60 L 181.90 282.20 L 181.40 284.00 L 178.70 286.50 L 177.10 284.50 L 168.60 272.80 L 164.30 266.40 L 162.60 263.50 L 161.30 260.30 L 161.60 257.10 L 163.50 251.60 L 166.20 246.20 L 169.70 240.50 L 176.00 248.90 Z" fill="#f1b282" fill-rule="nonzero" group-id="8" id="Path" node-id="110" stroke="none" target-height="46" target-width="20.59999" target-x="161.3" target-y="240.5"></path><path d="M 213.10 224.90 L 215.20 224.10 L 216.70 223.10 L 220.00 219.60 L 221.50 216.90 L 223.10 213.10 L 224.30 208.80 L 226.00 199.90 L 226.80 191.70 L 226.70 185.60 L 225.60 181.50 L 225.50 179.10 L 226.20 174.70 L 227.70 170.10 L 228.50 169.10 L 228.90 169.10 L 229.10 169.70 L 228.90 175.90 L 232.10 177.80 L 233.20 179.10 L 233.20 180.00 L 231.50 184.50 L 231.80 201.70 L 231.30 211.80 L 231.00 213.60 L 229.30 218.80 L 226.50 225.20 L 223.30 231.10 L 221.60 233.40 L 220.10 234.70 L 219.30 235.00 L 217.90 234.60 L 215.90 232.30 L 214.40 229.10 L 213.10 224.90 Z" fill="#f1b282" fill-rule="nonzero" group-id="8" id="Path" node-id="111" stroke="none" target-height="65.899994" target-width="20.09999" target-x="213.1" target-y="169.1"></path><path d="M 196.50 229.00 L 186.70 229.30 L 183.40 229.80 L 178.00 231.50 L 174.50 233.90 L 170.20 238.20 L 167.80 241.40 L 165.50 245.30 L 166.60 247.00 L 169.50 249.40 L 172.70 251.30 L 174.20 251.70 L 175.00 251.60 L 178.80 248.10 L 179.70 248.00 L 180.20 248.30 L 180.70 249.70 L 180.80 253.90 L 179.90 264.00 L 176.80 280.10 L 176.60 282.90 L 177.20 285.70 L 177.80 286.20 L 179.70 286.70 L 191.90 286.60 L 200.30 288.00 L 203.40 288.20 L 206.20 288.00 L 209.40 287.00 L 210.40 286.10 L 211.20 284.00 L 211.00 279.80 L 209.10 269.90 L 208.40 263.70 L 208.70 254.00 L 209.60 247.60 L 210.50 245.00 L 211.30 243.40 L 213.20 241.30 L 221.70 236.80 L 222.60 236.10 L 223.40 234.50 L 223.20 233.30 L 220.90 229.60 L 217.50 225.90 L 214.40 223.70 L 213.50 223.70 L 208.00 227.70 L 206.20 228.50 L 204.40 228.80 L 196.50 229.00 Z" fill="#ffcb01" fill-rule="nonzero" group-id="8" id="Path" node-id="112" stroke="none" target-height="64.500015" target-width="57.899994" target-x="165.5" target-y="223.7"></path><path d="M 214.50 366.00 L 213.50 367.20 L 211.90 367.60 L 208.00 368.20 L 205.20 368.20 L 204.10 368.00 L 203.70 367.50 L 203.70 366.50 L 204.20 364.10 L 203.60 361.90 L 204.10 361.00 L 205.00 360.70 L 208.50 361.00 L 213.30 359.90 L 213.70 360.10 L 213.90 360.60 L 213.70 362.70 L 214.60 365.00 L 214.50 366.00 Z" fill="#355aa2" fill-rule="nonzero" group-id="8" id="Path" node-id="113" stroke="none" target-height="8.300018" target-width="11" target-x="203.6" target-y="359.9"></path><path d="M 173.70 367.00 L 174.80 368.10 L 176.40 368.50 L 180.30 368.80 L 183.10 368.70 L 184.20 368.40 L 184.50 367.90 L 184.50 366.90 L 183.90 364.50 L 184.40 362.30 L 183.80 361.40 L 182.90 361.10 L 179.40 361.60 L 174.60 360.80 L 174.20 361.00 L 174.00 361.50 L 174.30 363.60 L 173.60 366.00 L 173.70 367.00 Z" fill="#355aa2" fill-rule="nonzero" group-id="8" id="Path" node-id="114" stroke="none" target-height="8" target-width="10.899994" target-x="173.6" target-y="360.8"></path><path d="M 204.80 370.40 L 205.90 370.10 L 209.10 371.00 L 210.30 370.80 L 212.60 369.70 L 213.00 369.90 L 215.00 372.10 L 218.10 373.70 L 218.90 374.40 L 219.40 375.30 L 219.60 376.80 L 218.10 377.10 L 214.50 377.30 L 204.80 377.10 L 204.20 375.40 L 204.20 372.50 L 204.80 370.40 Z" fill="#102b5e" fill-rule="nonzero" group-id="8" id="Path" node-id="115" stroke="none" target-height="7.5999756" target-width="15.400009" target-x="204.2" target-y="369.7"></path><path d="M 174.10 370.40 L 175.30 370.10 L 178.50 371.00 L 179.60 370.80 L 182.00 369.70 L 182.40 369.90 L 184.40 372.10 L 187.50 373.70 L 188.20 374.40 L 188.70 375.30 L 188.90 376.80 L 187.50 377.10 L 183.90 377.30 L 174.10 377.10 L 173.50 375.40 L 173.50 372.50 L 174.10 370.40 Z" fill="#102b5e" fill-rule="nonzero" group-id="8" id="Path" node-id="116" stroke="none" target-height="7.5999756" target-width="15.399994" target-x="173.5" target-y="369.7"></path></g></svg>